<?xml version="1.0" encoding="UTF-8" standalone="no"?>
<!-- Created with Inkscape (http://www.inkscape.org/) -->

<svg
   xmlns:dc="http://purl.org/dc/elements/1.1/"
   xmlns:cc="http://creativecommons.org/ns#"
   xmlns:rdf="http://www.w3.org/1999/02/22-rdf-syntax-ns#"
   xmlns:svg="http://www.w3.org/2000/svg"
   xmlns="http://www.w3.org/2000/svg"
   xmlns:sodipodi="http://sodipodi.sourceforge.net/DTD/sodipodi-0.dtd"
   xmlns:inkscape="http://www.inkscape.org/namespaces/inkscape"
   width="130.88054mm"
   height="74.36071mm"
   viewBox="0 0 130.88054 74.36071"
   version="1.1"
   id="svg1190"
   inkscape:version="0.92.5 (2060ec1f9f, 2020-04-08)"
   sodipodi:docname="cache_3.svg">
  <defs
     id="defs1184" />
  <sodipodi:namedview
     id="base"
     pagecolor="#ffffff"
     bordercolor="#666666"
     borderopacity="1.0"
     inkscape:pageopacity="0.0"
     inkscape:pageshadow="2"
     inkscape:zoom="1.4"
     inkscape:cx="154.95938"
     inkscape:cy="224.56035"
     inkscape:document-units="mm"
     inkscape:current-layer="layer1"
     showgrid="false"
     fit-margin-top="0"
     fit-margin-left="0"
     fit-margin-right="0"
     fit-margin-bottom="0"
     inkscape:window-width="1918"
     inkscape:window-height="1057"
     inkscape:window-x="0"
     inkscape:window-y="0"
     inkscape:window-maximized="0" />
  <metadata
     id="metadata1187">
    <rdf:RDF>
      <cc:Work
         rdf:about="">
        <dc:format>image/svg+xml</dc:format>
        <dc:type
           rdf:resource="http://purl.org/dc/dcmitype/StillImage" />
        <dc:title></dc:title>
      </cc:Work>
    </rdf:RDF>
  </metadata>
  <g
     inkscape:label="Layer 1"
     inkscape:groupmode="layer"
     id="layer1"
     transform="translate(139.05113,-25.849562)">
    <path
       style="stroke-width:0.00881945"
       inkscape:connector-curvature="0"
       d="m -130.81503,-8.5967404 c -0.10584,0.2822225 -0.52035,2.8134025 -0.57327,3.5189575 -0.0441,0.6085425 0.0264,0.78493 0.3175,0.78493 0.23813,0 0.33514,-0.2822225 0.33514,-0.94368 0,-0.32632 0.0353,-0.64382 0.0706,-0.696735 0.0617,-0.105835 1.55222,-0.740835 1.71979,-0.740835 0.0529,0 0.0617,0.3615975 0.0265,0.9172225 -0.0705,0.9965975 0,1.28764 0.29986,1.28764 0.24695,0 0.27341,-0.097015 0.30869,-1.0054175 0.0176,-0.4497925 0.0794,-0.9965975 0.13229,-1.208265 0.0529,-0.211665 0.11465,-0.714375 0.13229,-1.10243 0.0441,-0.76729 -0.0353,-0.96132 -0.37042,-0.8995825 -0.12347,0.026455 -0.16757,0.14993 -0.22048,0.5820825 -0.0353,0.2998625 -0.0794,0.582085 -0.10584,0.62618 -0.0529,0.079375 -1.57868,0.714375 -1.71979,0.714375 -0.0441,0 -0.0177,-0.2645825 0.0441,-0.5820825 0.17639,-0.8113875 0.17639,-1.27 0.0265,-1.3670125 -0.20285,-0.1322925 -0.34396,-0.088195 -0.42333,0.1146525 z"
       id="path2047" />
    <path
       style="stroke-width:0.00881945"
       inkscape:connector-curvature="0"
       d="m -127.15496,-7.8294504 c -0.48507,0.061737 -0.68792,0.255765 -0.50271,0.48507 0.0705,0.079375 0.21167,0.1411125 0.32632,0.1411125 0.24694,0 0.24694,0.026455 0.097,0.9701375 l -0.10583,0.6614575 -0.34396,0.044095 c -0.72319,0.097015 -0.61736,0.6173625 0.12347,0.6173625 0.51153,0 1.49049,-0.2910425 1.78153,-0.5203475 0.18521,-0.15875 0.19403,-0.1852075 0.0617,-0.3175 -0.12348,-0.1234725 -0.20285,-0.1322925 -0.51153,-0.044095 -0.46743,0.1234725 -0.53799,0.079375 -0.44097,-0.32632 0.0441,-0.1852075 0.0794,-0.47625 0.0794,-0.6526375 0,-0.3704175 0.13229,-0.5203475 0.44979,-0.5203475 0.30868,0 0.65264,-0.2822225 0.58209,-0.46743 -0.0617,-0.15875 -0.65264,-0.18521 -1.59632,-0.070557 z"
       id="path2049" />
    <path
       style="stroke-width:0.00881945"
       inkscape:connector-curvature="0"
       d="m -124.42975,-7.6442404 c -0.097,0.1058325 -0.27341,0.1763875 -0.44098,0.1763875 -0.14993,0 -0.35277,0.052917 -0.44979,0.1234725 -0.24694,0.1940275 -0.0617,0.4409725 0.3616,0.47625 0.3175,0.02646 0.32632,0.03528 0.26458,0.30868 -0.13229,0.66146 -0.15875,1.208265 -0.0441,1.3405575 0.22049,0.2645825 0.45861,0.079375 0.50271,-0.405695 0.0177,-0.2116675 0.0705,-0.5909025 0.12347,-0.8466675 l 0.0882,-0.45861 0.5027,-0.097015 c 0.66146,-0.1322925 0.94368,-0.2734025 0.94368,-0.48507 0,-0.15875 -0.0529,-0.1763875 -0.68791,-0.14993 -0.37042,0.00882 -0.75847,-0.01765 -0.84667,-0.061735 -0.12347,-0.070558 -0.20285,-0.052918 -0.3175,0.079375 z"
       id="path2051" />
    <path
       style="stroke-width:0.00881945"
       inkscape:connector-curvature="0"
       d="m -118.15031,-4.3634079 c -0.14993,0.052918 -0.25576,0.16757 -0.29104,0.3175 -0.0264,0.1322925 -0.0617,0.2822225 -0.0794,0.3351375 -0.0264,0.097015 -5.79437,0.264585 -5.95312,0.16757 -0.11465,-0.070555 -7.69938,0.1322925 -9.51618,0.246945 -1.3141,0.088195 -1.5434,0.1322925 -1.6316,0.2645825 -0.0794,0.1322925 -0.0617,0.18521 0.0794,0.2998625 0.14111,0.1058325 0.35277,0.1234725 1.19062,0.079375 3.73063,-0.1940275 5.13292,-0.229305 10.09826,-0.246945 l 5.55626,-0.026455 0.009,0.29104 c 0.009,0.16757 0.0617,0.33514 0.13229,0.3792375 0.18521,0.1146525 0.62618,0.097012 0.77611,-0.044095 0.0794,-0.070555 0.49389,-0.229305 0.91722,-0.3615975 0.77611,-0.229305 1.12007,-0.4497925 1.12007,-0.705555 0,-0.16757 -0.635,-0.5291675 -1.25236,-0.705555 -0.2734,-0.079375 -0.54681,-0.19403 -0.59973,-0.264585 -0.12346,-0.14993 -0.21166,-0.14993 -0.55562,-0.026455 z"
       id="path2053" />
    <g
       id="g2909"
       transform="translate(2.8348214,-2.4568452)">
      <g
         id="g2922"
         transform="translate(34.017857,-5.4806547)"
         style="fill:#ff6600">
        <g
           id="g2915"
           style="fill:#ff6600">
          <path
             id="path2039"
             d="m -105.57378,-1.1632104 c -0.0882,0.114655 -0.58208,1.58749998 -0.6791,2.03729248 -0.097,0.40569502 -0.20284,0.19402752 -0.2734,-0.5115275 -0.0441,-0.5115275 -0.10583,-0.723195 -0.25576,-0.8995825 -0.37924,-0.4409725 -0.4498,-0.3086825 -1.28764,2.35479002 -0.20285,0.65264 -0.43216,1.29646 -0.49389,1.43757 -0.097,0.17639 -0.10583,0.2822225 -0.0353,0.414515 0.13229,0.2469425 0.39687,0.220485 0.52916,-0.070558 0.12347,-0.2557625 0.47625,-1.349375 0.60854,-1.8609025 0.0441,-0.1763875 0.1323,-0.4850675 0.18521,-0.696735 0.0529,-0.20284752 0.13229,-0.35277752 0.16757,-0.33514002 0.0441,0.02646 0.12347,0.2910425 0.17639,0.58208502 0.29104,1.4552075 0.81139,1.640415 1.06715,0.370415 0.17639,-0.86430502 0.39688,-1.61395752 0.48507,-1.61395752 0.10584,0 0.17639,0.388055 0.30868,1.72861002 0.11466,1.13771 0.19403,1.42875 0.4057,1.516945 0.2734,0.105835 0.32632,-0.097012 0.22048,-0.9172225 -0.0529,-0.4233325 -0.14111,-1.190625 -0.19402,-1.70215252 -0.10584,-0.9877775 -0.23813,-1.41993 -0.53799,-1.73742998 -0.22049,-0.229305 -0.28222,-0.246945 -0.39687,-0.097015 z"
             inkscape:connector-curvature="0"
             style="fill:#ff6600;stroke-width:0.00881945" />
          <path
             id="path2041"
             d="m -103.21017,0.39783208 c -0.77611,0.0529175 -0.97896,0.16757 -0.8643,0.48507 0.0441,0.12347252 0.12347,0.14111002 0.32632,0.0970125 0.32631,-0.070555 0.32631,-0.061735 0.42333,0.97014002 0.0794,0.7672925 0.0705,0.80257 -0.12347,1.023055 -0.1323,0.1322925 -0.21167,0.32632 -0.21167,0.50271 0,0.3263175 0.0882,0.3527775 0.42333,0.1146525 0.13229,-0.088195 0.41452,-0.1940275 0.635,-0.2293075 0.52035,-0.070555 0.81139,-0.2645825 0.77611,-0.5115275 -0.0264,-0.1763875 -0.0705,-0.1940275 -0.43215,-0.1675675 -0.2293,0.01765 -0.43215,0 -0.45861,-0.044095 -0.0264,-0.035275 -0.0706,-0.405695 -0.10583,-0.82021 l -0.0617,-0.7496525 0.32632,-0.12347252 c 0.17639,-0.061735 0.34396,-0.1675675 0.37042,-0.238125 0.0441,-0.1234725 -0.12348,-0.4056925 -0.22931,-0.370415 -0.0264,0.008825 -0.38805,0.035275 -0.79375,0.061735 z"
             inkscape:connector-curvature="0"
             style="fill:#ff6600;stroke-width:0.00881945" />
          <path
             id="path2043"
             d="m -98.985658,0.38019458 c -0.291043,0.12347 -0.396875,0.3527775 -0.361598,0.84666502 0.0088,0.088195 0.123473,0.2822225 0.264583,0.423335 0.202848,0.202845 0.33514,0.2557625 0.617363,0.2557625 0.29986,0 0.379235,0.03528 0.46743,0.2116675 0.17639,0.396875 -0.132293,0.714375 -0.820208,0.8290275 -0.30868,0.052917 -0.396875,0.1058325 -0.414515,0.2645825 -0.03527,0.255765 0.123472,0.4586125 0.370418,0.4586125 0.352777,0 1.10243,-0.423335 1.287637,-0.723195 0.449793,-0.7496525 -0.05292,-1.658055 -0.91722,-1.658055 -0.3175,0 -0.405695,-0.246945 -0.149932,-0.44979252 0.352777,-0.2822225 0.08819,-0.635 -0.343958,-0.45861 z"
             inkscape:connector-curvature="0"
             style="fill:#ff6600;stroke-width:0.00881945" />
          <path
             id="path2045"
             d="m -101.17288,0.79470708 c -0.29104,0.26458252 -0.32632,0.35277752 -0.32632,0.71437502 0,0.3527775 0.0353,0.4409725 0.25577,0.6173625 0.14993,0.1146525 0.44979,0.238125 0.68791,0.2645825 0.45861,0.061735 0.52917,0.1852075 0.24694,0.4409725 -0.10583,0.097012 -0.24694,0.13229 -0.37041,0.1058325 -0.69673,-0.1763875 -0.68791,-0.1763875 -0.68791,0 0,0.097015 0.0794,0.2822225 0.1852,0.414515 0.47625,0.5997225 1.578682,-0.01765 1.578682,-0.899585 0,-0.3351375 -0.32632,-0.635 -0.696742,-0.635 -0.61736,0 -0.81138,-0.3351375 -0.40569,-0.714375 0.11465,-0.11465252 0.22049,-0.29986002 0.22049,-0.41451252 0,-0.2910425 -0.29986,-0.246945 -0.68792,0.1058325 z"
             inkscape:connector-curvature="0"
             style="fill:#ff6600;stroke-width:0.00881945" />
        </g>
      </g>
      <path
         id="path2055"
         d="m -86.690096,0.29199819 c -0.0353,0.02646 -0.0617,0.141112 -0.0617,0.255765 0,0.105832 -0.0617,0.211667 -0.13229,0.246945 -0.0706,0.02645 -0.13229,0.13229 -0.13229,0.22930501 0,0.09701 -0.0529,0.17639 -0.10583,0.17639 -1.01424,0.03527 -6.6675,-0.02646 -8.66951,-0.08819 -1.45521,-0.04409 -3.96875,-0.11465301 -5.573894,-0.14111301 l -2.93687,-0.06173 V 1.0945782 c 0,0.30868 -1.22591,0.255765 11.094854,0.46743 3.4484,0.06174 6.27945,0.149932 6.27945,0.18521 0,0.04409 -0.0617,0.335137 -0.14112,0.64382 -0.11465,0.46743 -0.12347,0.59972 -0.0353,0.705555 0.15875,0.194027 0.24695,0.16757 1.56986,-0.511528 1.27882,-0.65264 1.89619,-1.12007 1.85209,-1.419932 -0.0353,-0.27340301 -0.68792,-0.55562501 -1.74625,-0.75847001 -1.00542,-0.19403 -1.17299,-0.202848 -1.26118,-0.114655 z"
         inkscape:connector-curvature="0"
         style="stroke-width:0.00881945" />
      <path
         id="path2057"
         d="m -89.936908,6.0069996 c 0.03527,0.070555 0.07055,0.13229 0.08819,0.13229 0.01763,0 0.03527,-0.061735 0.03527,-0.13229 0,-0.070555 -0.03527,-0.1322925 -0.08819,-0.1322925 -0.04409,0 -0.06173,0.061737 -0.03527,0.1322925 z"
         inkscape:connector-curvature="0"
         style="stroke-width:0.00881945" />
    </g>
    <path
       style="stroke-width:0.00881945"
       inkscape:connector-curvature="0"
       d="m -44.859466,25.98682 -0.396875,0.16757 -0.06174,1.613958 c -0.02646,0.890764 -0.07937,1.922639 -0.105833,2.293056 -0.05292,0.590902 -0.03527,0.687916 0.123475,0.829027 0.220483,0.202848 0.97014,0.149931 1.675693,-0.123472 0.60854,-0.229305 1.569865,-1.040694 1.816807,-1.534583 0.246943,-0.47625 0.414515,-1.296458 0.33514,-1.613959 -0.0882,-0.379235 -0.343957,-0.846666 -0.582082,-1.067152 -0.643825,-0.608542 -2.037293,-0.890764 -2.804583,-0.564445 z m 1.640415,0.608542 c 0.943678,0.32632 1.29646,0.846666 1.181803,1.710972 -0.04409,0.282223 -0.15875,0.626181 -0.25576,0.767292 -0.47625,0.661458 -1.393475,1.199444 -2.178408,1.26118 -0.291042,0.02646 -0.335135,0 -0.379232,-0.185208 -0.03528,-0.114653 -0.02646,-0.46743 0.0088,-0.793749 0.02646,-0.3175 0.0882,-1.058334 0.114657,-1.640417 0.05292,-0.80257 0.09701,-1.084792 0.202843,-1.172987 0.194032,-0.14993 0.776117,-0.123472 1.305282,0.05292 z"
       id="path2059" />
    <path
       style="stroke-width:0.00881945"
       inkscape:connector-curvature="0"
       d="m -35.087523,26.092653 c -0.09702,0.05292 -0.15875,0.194029 -0.15875,0.343959 0,0.141111 -0.03527,0.273403 -0.07056,0.299861 -0.04409,0.02646 -0.105832,0.432153 -0.13229,0.908403 -0.03527,0.47625 -0.14111,1.322917 -0.238125,1.878542 -0.211667,1.225902 -0.220485,1.534583 -0.03528,1.684513 0.123473,0.09701 0.15875,0.0882 0.264583,-0.05292 0.07056,-0.08819 0.123475,-0.291042 0.123475,-0.449792 0,-0.15875 0.09701,-0.776111 0.220482,-1.375833 0.14111,-0.696736 0.220485,-1.375833 0.220485,-1.896181 0,-0.784931 0.0088,-0.820208 0.211665,-0.873125 0.291043,-0.07056 0.917225,0.114653 1.014243,0.308681 0.194025,0.361597 -0.255768,1.190625 -0.79375,1.472847 -0.414518,0.211667 -0.343961,0.511528 0.282217,1.322917 0.6791,0.881944 1.358198,1.622777 1.481665,1.622777 0.105835,0 0.273408,-0.282222 0.273408,-0.485069 0,-0.07938 -0.167573,-0.326319 -0.379241,-0.555625 -0.202842,-0.229306 -0.564442,-0.661458 -0.802567,-0.970138 l -0.423333,-0.555625 0.264583,-0.282223 c 0.282225,-0.299861 0.723193,-1.11125 0.723193,-1.340556 0,-0.3175 -0.370418,-0.855486 -0.661458,-0.978958 -0.352775,-0.141111 -1.164167,-0.15875 -1.38465,-0.02646 z"
       id="path2061" />
    <path
       style="stroke-width:0.00881945"
       inkscape:connector-curvature="0"
       d="m -39.761833,26.269042 -0.335133,0.16757 v 0.908403 c 0,0.493888 -0.0441,1.296459 -0.09702,1.781528 -0.05291,0.485069 -0.123475,1.146527 -0.15875,1.481666 -0.03527,0.32632 -0.02645,0.652639 0.01765,0.723195 0.08819,0.167569 0.29104,0.167569 0.361592,0 0.03528,-0.09701 0.20285,-0.132292 0.687915,-0.132292 1.067158,0 1.905,-0.520347 2.372435,-1.464028 0.17639,-0.352777 0.211666,-0.564444 0.202848,-1.181805 0,-0.908403 -0.09701,-1.111251 -0.864308,-1.896181 l -0.564442,-0.573264 h -0.643823 c -0.47625,0.0088 -0.740835,0.05292 -0.97896,0.185208 z m 1.737435,0.714375 c 1.005415,0.890765 1.11125,2.301876 0.220482,3.104445 -0.38805,0.352778 -0.811385,0.493889 -1.464025,0.493889 -0.529167,0 -0.5909,-0.07937 -0.467432,-0.582083 0.05292,-0.194028 0.114657,-0.996598 0.141115,-1.781528 0.06174,-1.622778 0.04409,-1.5875 0.784925,-1.59632 0.308685,-0.0088 0.432157,0.05292 0.784935,0.361597 z"
       id="path2063" />
    <path
       style="stroke-width:0.00881945"
       inkscape:connector-curvature="0"
       d="m -10.992801,31.992862 c -1.74625,0.185208 -6.535207,0.449792 -10.936115,0.617361 -1.38465,0.05292 -2.866317,0.105833 -3.307292,0.132292 -0.92604,0.0441 -2.257775,0.09701 -5.51215,0.220486 -1.28764,0.04409 -2.8134,0.105833 -3.395483,0.132292 -1.19945,0.04409 -4.339167,0.105833 -9.260417,0.176388 -6.288265,0.09701 -10.415766,0.282223 -10.821458,0.493889 -0.20285,0.105834 -0.291043,0.899584 -0.167575,1.499306 0.105832,0.537986 0.229307,1.719792 0.3616,3.651249 0.0441,0.723195 0.132292,1.816806 0.185207,2.425348 0.05292,0.608542 0.123475,1.834444 0.167568,2.734026 0.114657,2.372433 0.255767,4.45382 0.3616,5.159375 0.05292,0.33514 0.123475,1.314098 0.167567,2.160765 0.0441,0.846668 0.141115,2.196043 0.211665,2.99861 0.132293,1.472848 0.326325,4.788961 0.493893,8.510766 0.05292,1.11125 0.149932,2.742847 0.220482,3.615972 0.4057,4.991805 0.440975,5.662083 0.529168,8.775344 0.06174,2.10785 0.185207,4.45382 0.352783,6.614585 0.07055,0.899585 0.2293,3.06035 0.352775,4.8066 0.123475,1.74625 0.2734,3.527775 0.34396,3.96875 0.08819,0.617355 0.08819,1.190625 0.02646,2.60173 -0.07056,1.32292 -0.06173,2.054935 0.0088,2.734035 0.06174,0.511525 0.105833,1.09361 0.105833,1.29646 0,0.194025 0.05292,0.396875 0.114657,0.44979 0.06173,0.05291 0.70555,0.14111 1.42875,0.194025 0.73201,0.0441 1.763885,0.149935 2.29305,0.220485 1.6316,0.22049 7.434793,0.776115 9.216325,0.88195 0.45861,0.02645 2.028468,0.08819 3.483675,0.141105 1.45521,0.0441 3.67771,0.123475 4.938893,0.16757 1.261182,0.0441 4.7184,0.141115 7.672917,0.22049 6.341183,0.15875 8.837083,0.264585 10.759723,0.458614 0.7761095,0.0794 1.552217,0.14993 1.719792,0.14993 0.352775,0.009 0.3263175,0.14992 0.2293,-1.270004 l -0.04409,-0.749655 0.1322925,0.749655 c 0.07055,0.41451 0.14111,0.80257 0.14111,0.855485 0.00882,0.123475 0.24694,0.15875 0.24694,0.0441 0,-0.0353 -0.04409,-0.20285 -0.08819,-0.370415 -0.052917,-0.167575 -0.149935,-0.899585 -0.22931,-1.622785 -0.07055,-0.72319 -0.1763825,-1.4993 -0.2293,-1.71979 -0.052917,-0.220485 -0.1058325,-0.97896 -0.1146575,-1.68451 0,-0.70556 -0.052917,-1.87854 -0.1058325,-2.60174 -0.14111,-1.807985 -0.1499275,-3.38667 -0.035275,-5.42396 0.3792325,-6.676315 0.396875,-10.15118 0.097015,-18.476734 -0.079375,-2.39007 -0.15875,-5.441597 -0.22049,-9.480902 -0.017625,-1.190625 -0.052917,-2.919235 -0.079375,-3.836458 -0.02646,-0.926043 -0.070552,-3.02507 -0.09701,-4.674305 -0.026455,-1.649238 -0.0882,-3.633613 -0.141115,-4.409723 -0.04409,-0.776112 -0.1234675,-2.425347 -0.1675675,-3.668889 -0.0441,-1.243541 -0.1852075,-3.18382 -0.3175,-4.321527 -0.194025,-1.728612 -0.220485,-2.354792 -0.194025,-3.854098 0.02646,-1.552222 0.0088,-1.781527 -0.105835,-1.772708 -0.07056,0.0088 -0.432157,0.04409 -0.79375,0.07937 z m 0.335135,2.345972 c 0.01765,0.9525 0.07938,2.213681 0.149933,2.804584 0.335143,2.822222 0.5203495,5.961944 0.66146,11.209514 0.035275,1.499305 0.11465,4.383262 0.167565,6.394095 0.1146575,4.400903 0.2469495,9.013473 0.3704175,12.832293 0.24695,7.849306 0.24695,12.638261 0,16.536461 -0.25576,3.96875 -0.2998575,5.23875 -0.25576,7.32896 0.052918,2.19604 0.04409,2.257775 -0.13229,2.363605 -0.15875,0.105835 -0.167575,0.176395 -0.1146575,0.696735 0.026455,0.326325 0.13229,0.846665 0.2381245,1.164165 0.167573,0.52917 0.343958,1.710975 0.47625,3.236745 0.0441,0.502705 0.026455,0.643815 -0.061735,0.643815 -0.061732,0 -1.1641645,-0.06173 -2.4518075,-0.13229 -1.287635,-0.07056 -4.912425,-0.18521 -8.069792,-0.264585 -3.14854,-0.07056 -6.111875,-0.149935 -6.570483,-0.17639 -0.811392,-0.0441 -2.716392,-0.12347 -7.434792,-0.308675 -2.38125,-0.09702 -5.3534,-0.282225 -6.985,-0.440975 -2.39889,-0.238125 -5.221107,-0.555625 -6.35,-0.70556 -0.6791,-0.09701 -1.596318,-0.194025 -2.046108,-0.2293 l -0.811392,-0.06174 -0.05291,-0.405695 c -0.02646,-0.22048 -0.09702,-0.687915 -0.149935,-1.023055 -0.07938,-0.537985 -0.06173,-2.037295 0.06174,-4.58611 0.0088,-0.194025 -0.03528,-0.670275 -0.105835,-1.058335 -0.06174,-0.388055 -0.17639,-1.464025 -0.246947,-2.38125 -0.07055,-0.92604 -0.229303,-2.94569 -0.352775,-4.497915 -0.264585,-3.254375 -0.485068,-7.399515 -0.485068,-9.136945 0,-0.65264 -0.03528,-1.728611 -0.0882,-2.381249 -0.04409,-0.64382 -0.123467,-1.78153 -0.176385,-2.504722 -0.05291,-0.732015 -0.13229,-1.719793 -0.17639,-2.204863 -0.11465,-1.217082 -0.255768,-3.589512 -0.352775,-5.997222 -0.09702,-2.495903 -0.229308,-4.75368 -0.396875,-7.011458 -0.07056,-0.94368 -0.176393,-2.37243 -0.220493,-3.175 -0.05291,-0.80257 -0.13229,-1.693333 -0.176382,-1.984375 -0.105835,-0.62618 -0.238125,-2.601735 -0.352783,-4.982985 -0.04409,-0.94368 -0.105835,-1.878542 -0.132292,-2.07257 -0.02646,-0.194027 -0.105833,-1.225902 -0.176385,-2.293055 -0.15875,-2.469444 -0.282223,-3.721806 -0.440973,-4.497917 -0.07056,-0.335139 -0.09702,-0.643819 -0.06173,-0.670277 0.238125,-0.202848 6.843886,-0.47625 14.525626,-0.608542 4.815417,-0.07937 9.8425,-0.246945 13.229167,-0.432153 0.873125,-0.05292 2.742843,-0.132292 4.145133,-0.185208 5.87375,-0.211667 7.381875,-0.273403 8.466668,-0.352778 1.384657,-0.105833 1.887364,-0.141111 2.46945,-0.15875 l 0.440967,-0.01764 z m 1.666875,60.113332 c -0.026455,0.07055 -0.052917,0.0441 -0.052917,-0.05292 -0.00882,-0.09701 0.01765,-0.149925 0.0441,-0.11465 0.02646,0.02645 0.035275,0.105835 0.00883,0.16757 z"
       id="path2065" />
    <path
       style="stroke-width:0.00881945"
       inkscape:connector-curvature="0"
       d="m -105.22856,46.107753 c -0.0706,0.229305 0.13229,0.687915 0.62618,1.437568 l 0.40569,0.608542 -0.71437,0.732015 c -0.75848,0.78493 -0.90841,1.128888 -0.52917,1.24354 0.15875,0.05292 0.32632,-0.07055 0.93486,-0.670277 l 0.74083,-0.740833 0.23813,0.264583 c 0.13229,0.14993 0.37924,0.440972 0.56444,0.66146 0.29986,0.361595 0.33514,0.379235 0.54681,0.28222 0.12347,-0.05291 0.2293,-0.15875 0.2293,-0.229305 0,-0.07055 -0.22048,-0.405695 -0.48506,-0.740833 -0.26459,-0.343957 -0.48508,-0.679097 -0.48508,-0.740832 0,-0.06174 0.35278,-0.49389 0.79375,-0.9525 0.82021,-0.864308 0.96133,-1.172988 0.60854,-1.27882 -0.1411,-0.0441 -0.33513,0.105832 -1.03187,0.829027 -0.47625,0.493888 -0.88194,0.890763 -0.9084,0.890763 -0.0529,0 -0.50271,-0.696735 -0.96132,-1.481665 -0.19403,-0.3175 -0.48507,-0.379238 -0.57326,-0.114653 z"
       id="path2067"
       inkscape:transform-center-x="-4.5357143"
       inkscape:transform-center-y="4.5357179" />
    <path
       style="stroke-width:0.00881945"
       inkscape:connector-curvature="0"
       d="m -138.29266,34.277098 c -0.22048,0.194028 -0.48507,0.370417 -0.58208,0.405695 -0.16757,0.05292 -0.17639,0.123472 -0.17639,1.613958 0,0.855486 0.0353,2.099028 0.0882,2.751666 0.1323,1.922639 0.25577,4.533195 0.35278,7.364237 0.11465,3.280833 0.22049,5.829653 0.38806,9.304513 0.2293,4.674305 0.24694,6.120695 0.13229,10.098263 -0.0706,2.134307 -0.12347,7.170211 -0.13229,11.200696 -0.009,4.021665 -0.0441,7.505345 -0.0794,7.72583 -0.13229,0.81139 0.37042,1.234725 1.60514,1.393475 0.32632,0.03525 2.04611,0.05291 3.81882,0.02645 2.29306,-0.02645 4.04813,0 6.08542,0.09701 1.57868,0.07938 5.02708,0.167565 7.67291,0.194025 2.64584,0.02645 5.02709,0.07056 5.29167,0.08819 0.26458,0.02645 0.94368,0.0882 1.4993,0.14112 0.55563,0.0441 1.82563,0.185205 2.82223,0.299855 2.24014,0.264585 4.0834,0.440975 6.48229,0.61736 1.02305,0.07937 2.92805,0.238125 4.233329,0.352785 2.275417,0.20284 3.677707,0.3175 7.584722,0.617355 0.970138,0.07937 2.460625,0.220485 3.30729,0.308685 0.846668,0.09701 2.08139,0.176385 2.73403,0.176385 1.128888,0 1.208263,-0.0088 1.525763,-0.220485 0.520347,-0.352775 0.934862,-1.34056 0.679097,-1.596315 -0.05292,-0.05292 -0.123473,-1.852085 -0.17639,-4.4891 -0.04409,-2.42535 -0.105833,-4.533195 -0.13229,-4.67431 -0.01765,-0.14993 -0.06174,-0.94368 -0.0882,-1.763885 -0.07055,-2.05493 -0.379235,-8.704794 -0.440972,-9.304516 -0.05292,-0.590903 -0.105833,-1.437568 -0.176388,-2.910415 -0.03528,-0.608543 -0.08819,-1.73743 -0.132292,-2.513543 -0.03527,-0.77611 -0.07937,-1.72861 -0.07937,-2.116667 -0.0088,-0.388055 -0.05292,-1.39347 -0.09701,-2.231318 -0.220485,-3.81882 -0.273403,-4.665488 -0.30868,-4.91243 -0.01762,-0.149933 -0.06173,-1.217085 -0.08819,-2.38125 -0.03527,-1.164168 -0.07055,-2.196043 -0.08819,-2.293058 -0.01765,-0.09701 -0.06174,-0.749652 -0.07937,-1.455207 -0.02646,-0.705555 -0.09701,-2.275418 -0.141112,-3.48368 -0.05292,-1.217083 -0.123473,-3.457222 -0.16757,-4.982986 -0.05291,-2.460625 -0.07937,-2.804583 -0.220485,-3.02507 l -0.15875,-0.238125 -1.472848,0.0088 c -0.80257,0 -3.03389,0.05292 -4.947707,0.105833 -1.91382,0.06174 -6.34118,0.105834 -9.833677,0.09701 -5.53861,0 -8.17562,-0.05292 -13.44965,-0.255764 -3.35139,-0.123472 -11.89743,-0.3175 -19.77319,-0.440972 l -2.88396,-0.04409 z m 15.95438,0.176389 c 2.0902,0.05292 4.3127,0.132292 4.93889,0.185208 0.635,0.04409 1.94027,0.105834 2.91041,0.132292 0.97014,0.02646 2.4959,0.08819 3.39549,0.132292 4.15395,0.220486 7.3025,0.282222 15.830896,0.3175 5.044723,0.01764 9.233958,0.03528 9.313333,0.03528 0.123472,0 0.149932,0.211666 0.194027,1.561041 0.132293,3.527778 0.246945,6.094237 0.370418,8.140347 0.07055,1.190625 0.194027,3.430765 0.264582,4.982987 0.07937,1.55222 0.17639,3.31611 0.220488,3.924653 0.07937,1.023055 0.220485,4.021665 0.440972,9.084028 0.04409,1.137707 0.123473,2.769305 0.176388,3.61597 0.34396,5.997222 0.599722,13.264441 0.626182,17.815281 0.02645,4.268605 0.15875,4.03048 -2.08139,3.933465 -0.77611,-0.02645 -1.905,-0.11465 -2.513542,-0.18521 -0.60854,-0.07055 -2.178403,-0.20284 -3.4925,-0.308675 -1.314095,-0.09701 -3.042708,-0.23812 -3.836458,-0.308675 -1.393473,-0.123475 -4.550836,-0.379235 -7.046736,-0.57327 -2.8134,-0.22048 -4.47146,-0.370415 -6.12951,-0.573255 -3.72181,-0.45862 -4.42736,-0.493895 -10.75972,-0.57327 -3.34257,-0.0441 -6.73806,-0.13229 -7.54063,-0.185205 -0.8202,-0.06174 -3.32493,-0.11465 -5.73263,-0.11465 -3.88938,-0.0088 -4.30389,-0.02645 -4.55966,-0.15875 -0.14993,-0.0882 -0.29986,-0.22931 -0.3175,-0.308685 -0.0264,-0.08819 -0.0441,-0.9966 -0.0529,-2.019655 -0.009,-1.023055 -0.0529,-2.80458 -0.097,-3.96875 -0.0794,-2.07257 -0.0529,-6.182431 0.0794,-11.500556 0.10583,-3.986388 0.0529,-10.098263 -0.10584,-13.846528 -0.0794,-1.816805 -0.1852,-4.621388 -0.23812,-6.217708 -0.11465,-3.64243 -0.23813,-6.588125 -0.35278,-8.792986 -0.0529,-0.934861 -0.0882,-2.187222 -0.0794,-2.786944 l 0.009,-1.084792 0.29986,-0.123472 c 0.28222,-0.114653 0.78493,-0.15875 4.00402,-0.299861 1.87855,-0.07937 7.52299,-0.05292 11.86216,0.07055 z m 36.971104,8.625417 c -0.02646,0.08819 -0.04409,0.03527 -0.04409,-0.105835 0,-0.14993 0.01762,-0.211665 0.04409,-0.15875 0.01762,0.06174 0.01762,0.18521 0,0.264585 z m 0.352777,6.041318 c -0.02646,0.07055 -0.05292,0.04409 -0.05292,-0.05291 -0.0088,-0.09701 0.01765,-0.149933 0.04409,-0.114655 0.02646,0.02646 0.03528,0.105835 0.0088,0.16757 z m 0.61736,11.28889 c -0.02645,0.06173 -0.04409,0.01763 -0.04409,-0.105835 0,-0.123472 0.01765,-0.167567 0.04409,-0.114652 0.01765,0.06174 0.01765,0.16757 0,0.220487 z m 0.17639,4.453818 c -0.02646,0.08819 -0.04409,0.03528 -0.04409,-0.105833 0,-0.14993 0.01765,-0.211667 0.04409,-0.15875 0.01762,0.06174 0.01762,0.185208 0,0.264583 z m 0.264583,4.982987 c -0.02645,0.07055 -0.05292,0.04409 -0.05292,-0.05292 -0.0088,-0.09701 0.01765,-0.14993 0.04409,-0.114653 0.02646,0.02646 0.03527,0.105833 0.0088,0.16757 z m 0.264582,6.041319 c -0.02645,0.08819 -0.04409,0.01765 -0.04409,-0.14993 0,-0.16757 0.01762,-0.238125 0.04409,-0.15875 0.01765,0.08819 0.01765,0.229305 0,0.30868 z m 0.17639,4.718405 c -0.01765,0.11465 -0.03528,0.0441 -0.03528,-0.149935 -0.0088,-0.194025 0.0088,-0.28222 0.03528,-0.202845 0.01765,0.08819 0.01765,0.246945 0,0.35278 z"
       id="path2069" />
    <path
       style="stroke-width:0.00881945"
       inkscape:connector-curvature="0"
       d="m -130.84905,37.443279 c -0.82903,0.529166 -1.23472,1.128888 -1.30528,1.931458 -0.0794,0.926042 0.635,1.790347 1.47285,1.790347 0.43215,0 0.80257,-0.185209 0.80257,-0.405694 0,-0.09702 -0.11465,-0.123473 -0.50271,-0.105834 -0.28222,0.0088 -0.59972,-0.03527 -0.71437,-0.09701 -0.50271,-0.273402 -0.69674,-1.146527 -0.41452,-1.834444 0.16757,-0.388055 0.38806,-0.661458 0.49389,-0.590903 0.0441,0.02646 0.0617,-0.0088 0.0353,-0.07055 -0.0441,-0.123472 0.48507,-0.511528 0.6791,-0.511528 0.0617,0.0088 0,0.07056 -0.13229,0.141111 -0.3175,0.16757 -0.29105,0.194028 0.1852,0.141111 0.37042,-0.03528 0.37924,-0.04409 0.35278,-0.3175 -0.0264,-0.229305 -0.0617,-0.273403 -0.29104,-0.299861 -0.17639,-0.01764 -0.39687,0.06174 -0.66146,0.229306 z"
       id="path2071" />
    <path
       style="stroke-width:0.00881945"
       inkscape:connector-curvature="0"
       d="m -128.09738,37.346265 c -0.62618,0.220486 -0.6791,0.370416 -0.70556,2.107847 -0.0352,1.490486 -0.0264,1.516944 0.15875,1.57868 0.10584,0.03528 0.21167,0.03528 0.23813,0.0088 0.0353,-0.02646 0.0617,-0.396875 0.0617,-0.820208 l 0.009,-0.776112 0.4057,0.02646 c 0.68792,0.05292 1.40229,-0.423333 1.57868,-1.031874 0.14111,-0.49389 -0.16757,-1.005417 -0.71438,-1.155348 -0.38805,-0.114652 -0.57326,-0.105833 -1.03187,0.06174 z m 1.03187,0.546805 c 0.18521,0.105834 0.24695,0.405695 0.11466,0.582084 -0.0353,0.05292 -0.19403,0.185208 -0.34396,0.299861 -0.24695,0.167569 -0.34396,0.185208 -0.66146,0.123472 -0.2734,-0.05292 -0.37924,-0.114653 -0.37042,-0.229306 0,-0.07937 0.009,-0.282222 0.0177,-0.440972 0.0177,-0.211666 0.0706,-0.326319 0.22049,-0.396875 0.22931,-0.114653 0.74965,-0.07937 1.02306,0.06174 z"
       id="path2073" />
    <path
       style="stroke-width:0.00881945"
       inkscape:connector-curvature="0"
       d="m -125.5662,37.910709 c -0.0617,0.123472 -0.0882,0.529167 -0.0617,1.128889 0.0529,1.552222 0.52917,2.301875 1.46403,2.301875 0.55563,0 0.82021,-0.202848 1.17299,-0.899583 0.30868,-0.608542 0.37923,-1.11125 0.28222,-1.92264 -0.0706,-0.537985 -0.0882,-0.573263 -0.30868,-0.599721 -0.15875,-0.01764 -0.24695,0.01764 -0.25576,0.08819 -0.009,0.06174 -0.0177,0.493889 -0.0264,0.9525 -0.009,0.679097 -0.0441,0.908402 -0.20285,1.199444 -0.37042,0.696737 -0.70556,0.829028 -1.11125,0.449792 -0.3616,-0.326319 -0.52917,-0.890764 -0.51153,-1.763889 0.0177,-0.987777 -0.18521,-1.411111 -0.44097,-0.934861 z"
       id="path2075" />
    <path
       style="stroke-width:0.00881945"
       inkscape:connector-curvature="0"
       d="m -105.39613,38.034181 c -0.70556,0.291042 -1.02306,0.599723 -1.02306,1.014236 0,0.388056 0.26459,0.670278 0.97014,1.014237 0.80257,0.396875 1.06715,0.749652 0.75847,1.005416 -0.20284,0.16757 -0.79375,-0.01764 -1.08479,-0.343958 -0.28222,-0.308681 -0.46743,-0.299862 -0.46743,0.02646 0,0.3175 0.25576,0.590902 0.74083,0.820208 0.81139,0.379236 1.29646,0.220486 1.42875,-0.440972 0.12348,-0.661459 -0.22048,-1.164167 -1.05833,-1.543403 -0.29104,-0.132292 -0.5909,-0.308681 -0.66146,-0.396875 -0.10583,-0.123472 -0.097,-0.176389 0.0794,-0.361597 0.2293,-0.246945 0.96132,-0.520347 1.17298,-0.432153 0.0882,0.02646 0.14993,0.105833 0.14993,0.176389 0,0.07055 0.0617,0.123472 0.1323,0.123472 0.19402,0 0.17638,-0.555625 -0.0264,-0.732013 -0.22049,-0.202848 -0.49389,-0.185209 -1.11125,0.07055 z"
       id="path2077" />
    <path
       style="stroke-width:0.00881945"
       inkscape:connector-curvature="0"
       d="m -102.64447,37.990084 c -0.40569,0.238125 -0.81138,2.972153 -0.52034,3.518958 0.0617,0.105833 0.17639,0.185208 0.2734,0.185208 0.14993,0 0.15875,-0.06173 0.12347,-0.643819 -0.0265,-0.449791 0.0176,-0.917222 0.15875,-1.605139 l 0.20285,-0.970138 0.29104,-0.02646 c 0.26458,-0.02646 0.28222,-0.0088 0.28222,0.246944 0,0.176389 -0.0882,0.388056 -0.22048,0.546806 -0.42334,0.493888 -0.4057,0.802569 0.0794,1.569861 0.49389,0.78493 0.57327,0.881944 0.71438,0.829027 0.2734,-0.105833 0.10583,-0.79375 -0.3175,-1.349375 -0.22049,-0.273402 -0.21167,-0.379236 0.0529,-0.767291 0.16757,-0.238125 0.22049,-0.440972 0.22049,-0.776111 0,-0.246945 -0.0353,-0.493889 -0.0706,-0.546805 -0.1852,-0.273404 -0.94368,-0.396875 -1.27,-0.211667 z"
       id="path2079" />
    <path
       style="stroke-width:0.00881945"
       inkscape:connector-curvature="0"
       d="m -99.522384,38.404598 c -0.141113,0.282222 -0.308683,0.732014 -0.370418,0.996597 -0.06174,0.264584 -0.229308,0.776111 -0.361598,1.128889 -0.29104,0.723195 -0.3175,1.005416 -0.12347,1.164166 0.16757,0.141112 0.396873,-0.02646 0.396873,-0.29986 0,-0.308681 0.105833,-0.379236 0.714375,-0.432153 l 0.590903,-0.05292 0.04409,0.3175 c 0.07937,0.440972 0.502707,0.732014 0.62618,0.423334 0.02646,-0.07056 0.0088,-0.229306 -0.03527,-0.352779 -0.04409,-0.123471 -0.123472,-0.635 -0.16757,-1.137708 -0.05292,-0.502708 -0.167567,-1.128888 -0.264582,-1.375833 -0.185208,-0.493889 -0.493891,-0.881944 -0.687918,-0.881944 -0.06174,0 -0.229305,0.229305 -0.361595,0.502708 z m 0.652638,1.146527 c 0.202847,0.855487 0.185207,0.899584 -0.246946,0.846667 -0.211664,-0.02646 -0.405692,-0.07056 -0.440972,-0.105833 -0.05291,-0.04409 0.141113,-0.837847 0.32632,-1.322917 0.07938,-0.211667 0.229305,0.01764 0.361598,0.582083 z"
       id="path2081" />
    <path
       style="stroke-width:0.00881945"
       inkscape:connector-curvature="0"
       d="m -94.195441,38.669181 c -0.414513,0.79375 -0.873126,1.393473 -1.014235,1.314098 -0.03527,-0.02646 -0.09701,-0.335139 -0.114653,-0.679098 -0.04409,-0.608541 -0.229307,-1.031875 -0.49389,-1.120069 -0.14111,-0.04409 -0.370417,0.449792 -0.45861,1.014236 -0.04409,0.264583 -0.264585,0.890764 -0.48507,1.384652 -0.220487,0.49389 -0.396875,0.978959 -0.396875,1.084792 0,0.264583 0.238125,0.32632 0.388055,0.08819 0.246945,-0.370417 0.758473,-1.552222 0.758473,-1.737431 0,-0.291041 0.202847,-0.15875 0.291042,0.185209 0.08819,0.343958 0.194028,0.432152 0.511528,0.432152 0.238125,0 0.820207,-0.537986 1.040695,-0.961319 0.06173,-0.09701 0.14111,-0.185208 0.176387,-0.185208 0.04409,0 0.08819,0.555625 0.114653,1.234722 0.03528,1.305278 0.105835,1.543403 0.405695,1.358194 0.132292,-0.08819 0.14993,-0.282222 0.132292,-1.922639 -0.0088,-1.508125 -0.03527,-1.860902 -0.149932,-2.046111 -0.07937,-0.114652 -0.185208,-0.211666 -0.229305,-0.211666 -0.04409,0 -0.255763,0.343958 -0.47625,0.767291 z"
       id="path2083" />
    <path
       style="stroke-width:0.00881945"
       inkscape:connector-curvature="0"
       d="m -133.81238,42.064667 c -0.0706,0.114653 0.17639,0.414515 0.40569,0.48507 0.12348,0.03527 1.33174,0.07055 2.68993,0.07055 1.43757,0 2.76931,0.05292 3.175,0.114652 0.84667,0.123473 3.4925,0.264585 6.64105,0.34396 1.36701,0.03527 2.39007,0.09701 2.50472,0.14993 0.29104,0.14993 0.42333,0.80257 0.42333,2.21368 0,1.640418 0.14111,4.674305 0.30868,6.526388 0.22049,2.531182 0.56445,6.720418 0.66146,8.157988 0.0617,0.749652 0.25576,2.936875 0.44979,4.850692 0.42334,4.277433 0.41452,4.092223 0.52035,5.600348 0.0529,0.679097 0.11465,1.340557 0.14111,1.472847 0.0441,0.238125 0.0353,0.246945 -0.33514,0.246945 -0.43215,0 -2.30187,-0.229305 -2.84868,-0.352777 -0.58208,-0.132293 -3.48368,-0.343958 -5.82083,-0.432153 -1.21709,-0.05292 -2.2666,-0.105835 -2.33716,-0.132292 -0.14111,-0.05292 -3.05152,-0.220485 -5.20347,-0.30868 l -1.36701,-0.05292 0.0177,-0.30868 c 0,-0.16757 -0.0352,-0.590902 -0.0882,-0.926042 -0.0529,-0.343958 -0.097,-1.375833 -0.10583,-2.293055 0,-0.926043 -0.0617,-2.248958 -0.11465,-2.963333 -0.14993,-1.693332 -0.0882,-10.257015 0.10583,-14.322778 0.24695,-5.318125 0.15875,-8.157985 -0.25576,-8.157985 -0.22049,0 -0.28222,0.291041 -0.22931,0.970138 0.0882,1.12007 0.0617,5.653265 -0.0705,10.01007 -0.0882,3.042708 -0.10584,5.300485 -0.0529,8.466665 0.0441,2.372433 0.0794,5.115278 0.0794,6.085418 0.009,2.187222 0.11465,3.63361 0.29104,3.915832 0.12347,0.194028 0.16757,0.202848 0.76729,0.15875 0.635,-0.05291 5.74146,0.15875 6.13833,0.255765 0.11465,0.02645 1.19063,0.07937 2.38125,0.123473 2.77813,0.105832 4.60375,0.238125 5.60035,0.405692 1.72861,0.299863 2.40771,0.388058 3.07798,0.396875 0.65264,0.0088 0.70556,0 0.89959,-0.229305 0.19403,-0.220485 0.19403,-0.255762 0.0794,-0.64382 -0.0705,-0.229305 -0.16757,-0.908402 -0.22048,-1.516942 -0.0529,-0.608543 -0.19403,-1.975558 -0.30868,-3.04271 -0.11466,-1.067153 -0.25577,-2.416528 -0.30868,-2.99861 -0.0529,-0.582083 -0.14993,-1.455208 -0.22049,-1.940278 -0.0706,-0.48507 -0.16757,-1.561042 -0.22049,-2.38125 -0.21166,-3.139722 -0.36159,-5.000625 -0.62618,-7.76111 -0.14993,-1.59632 -0.16757,-1.975558 -0.24694,-5.512153 -0.0794,-3.65125 -0.0794,-3.67771 -0.56445,-4.1275 -0.22048,-0.211667 -0.23812,-0.211667 -3.51896,-0.282223 -3.64243,-0.08819 -4.86833,-0.141111 -6.24416,-0.264583 -1.09361,-0.105833 -5.99722,-0.15875 -6.05014,-0.07056 z"
       id="path2085" />
    <path
       style="stroke-width:0.00881945"
       inkscape:connector-curvature="0"
       d="m -109.55009,42.408625 c -0.14111,0.05292 -0.42333,0.09701 -0.61736,0.105834 l -0.35278,0.01765 -0.0264,0.48507 c -0.0177,0.264583 0.0264,0.917223 0.10584,1.455208 0.0705,0.529167 0.15875,1.367015 0.1852,1.852085 0.0264,0.48507 0.10584,1.534582 0.17639,2.337152 0.0706,0.80257 0.16757,2.601735 0.22049,4.012848 0.0529,1.40229 0.11465,2.619375 0.13229,2.68993 0.0794,0.273403 0.22049,3.704165 0.30868,7.099653 0.12347,4.991805 0.29986,9.225137 0.39688,9.53382 0.0529,0.15875 0.92604,0.30868 3.1309,0.520345 1.76389,0.17639 3.80118,0.299862 4.72722,0.299862 0.20285,0 0.53798,0.0441 0.74965,0.08819 0.21167,0.0441 0.705556,0.105835 1.093611,0.14111 0.388058,0.02645 0.881945,0.08819 1.102433,0.132295 0.220485,0.0441 1.07597,0.12347 1.89618,0.176385 2.795762,0.17639 2.99861,0.18521 3.924652,0.273405 0.511527,0.0441 1.367013,0.12347 1.89618,0.16757 0.537985,0.05292 1.27882,0.14993 1.649235,0.229305 0.934862,0.18521 1.46403,0.14111 1.666875,-0.14111 0.423335,-0.582085 0.432155,-3.254376 0.03528,-10.892014 -0.33514,-6.52639 -0.458612,-8.404933 -0.749655,-11.1125 -0.04409,-0.440973 -0.105832,-1.367015 -0.13229,-2.07257 -0.114652,-3.095625 -0.229305,-5.441598 -0.273402,-5.69736 -0.06174,-0.449793 -0.34396,-0.723195 -0.767293,-0.784933 -0.202847,-0.02645 -2.293055,-0.08819 -4.647847,-0.13229 -4.60375,-0.09701 -5.679723,-0.16757 -10.451039,-0.714375 -1.07597,-0.123473 -5.05354,-0.176389 -5.37986,-0.07056 z m 6.70278,0.732014 c 1.45521,0.132293 3.324926,0.291043 4.145134,0.361598 0.829027,0.07055 2.504722,0.14993 3.730624,0.185207 1.922638,0.04409 2.240138,0.07937 2.301876,0.202848 0.07937,0.123472 0.282222,0.141112 1.74625,0.114652 0.970137,-0.01765 1.755067,0 1.88736,0.05292 0.220487,0.08819 0.229305,0.114652 0.282222,1.181805 0.229305,4.26861 0.343958,6.04132 0.537985,8.052152 0.529168,5.459236 0.996598,17.242013 0.758473,19.155833 -0.05291,0.485069 -0.14111,0.934864 -0.176388,0.996599 -0.06174,0.10583 -0.3175,0.09701 -1.561042,-0.02645 -0.811388,-0.07937 -2.416528,-0.211665 -3.554235,-0.28222 -4.224515,-0.264585 -4.841875,-0.317501 -6.52639,-0.520349 -0.943679,-0.114652 -2.293049,-0.264582 -2.998609,-0.3175 -0.70555,-0.05292 -1.97555,-0.17639 -2.82222,-0.264582 -0.84667,-0.09702 -1.93146,-0.194028 -2.39889,-0.229308 -0.47625,-0.03527 -0.89958,-0.105832 -0.94368,-0.15875 -0.15875,-0.194027 -0.38806,-4.956527 -0.53799,-10.989027 -0.0441,-1.913818 -0.12347,-4.083403 -0.17639,-4.806595 -0.0441,-0.732016 -0.13229,-2.372433 -0.17638,-3.660071 -0.0441,-1.28764 -0.14112,-3.051527 -0.21167,-3.924652 -0.0706,-0.873125 -0.15875,-2.002015 -0.18521,-2.513543 -0.0353,-0.511527 -0.11465,-1.296457 -0.18521,-1.75507 -0.0617,-0.45861 -0.11465,-0.846665 -0.097,-0.855485 0.16757,-0.123472 0.87312,-0.185207 2.52236,-0.202847 1.56104,-0.01762 2.56646,0.02646 4.63903,0.202847 z"
       id="path2087" />
    <path
       style="stroke-width:0.00881945"
       inkscape:connector-curvature="0"
       d="m -42.543727,43.337188 c -0.14993,0.15875 -0.44098,0.502708 -0.64382,0.749653 -0.21167,0.255762 -0.41452,0.46743 -0.4498,0.46743 -0.0441,0 -0.26458,-0.282223 -0.48506,-0.62618 -0.32632,-0.48507 -0.45862,-0.608543 -0.60855,-0.590903 -0.3175,0.04409 -0.28222,0.388055 0.11466,0.9525 0.20284,0.28222 0.37923,0.573263 0.41451,0.643818 0.0265,0.07937 -0.17639,0.405695 -0.52917,0.846667 -0.5909,0.732015 -0.67909,0.96132 -0.44979,1.155348 0.20285,0.16757 0.33514,0.07055 0.84667,-0.608543 0.26458,-0.343957 0.52035,-0.61736 0.58208,-0.62618 0.0529,0 0.19403,0.132293 0.29986,0.282223 0.37924,0.564445 0.62618,0.78493 0.75848,0.679097 0.17638,-0.14993 0.14111,-0.30868 -0.21167,-0.9525 l -0.3175,-0.590902 0.62618,-0.732015 c 0.65264,-0.749653 0.70555,-0.864305 0.5468,-1.164168 -0.12347,-0.229305 -0.1852,-0.211665 -0.49388,0.114655 z"
       id="path2089" />
    <path
       style="stroke-width:0.00881945"
       inkscape:connector-curvature="0"
       d="m -131.09599,45.266124 c -0.65264,0.82021 -0.89959,2.742848 -0.44979,3.474863 0.2293,0.370415 0.635,0.573262 0.87312,0.432152 0.22931,-0.14993 0.19403,-0.458612 -0.0529,-0.49389 -0.39687,-0.05291 -0.51152,-0.3175 -0.51152,-1.190625 -0.009,-0.714375 0.0177,-0.873125 0.2293,-1.296457 0.13229,-0.264583 0.29104,-0.555625 0.35278,-0.64382 0.0794,-0.105833 0.0882,-0.194028 0.0177,-0.29986 -0.14993,-0.238125 -0.26458,-0.229305 -0.45861,0.01763 z"
       id="path2091" />
    <path
       style="stroke-width:0.00881945"
       inkscape:connector-curvature="0"
       d="m -133.56544,45.327862 c 0.0264,0.06173 0.1323,0.132292 0.23813,0.14111 0.14111,0.02646 0.19403,-0.0088 0.16757,-0.08819 -0.0265,-0.06174 -0.13229,-0.132292 -0.23813,-0.141112 -0.14111,-0.02645 -0.19402,0.0088 -0.16757,0.0882 z"
       id="path2093" />
    <path
       style="stroke-width:0.00881945"
       inkscape:connector-curvature="0"
       d="m -128.35314,45.768834 c -0.0529,0.06173 -0.11466,0.62618 -0.14112,1.26118 -0.0529,1.09361 -0.0705,1.155348 -0.29104,1.349375 -0.26458,0.229305 -0.5909,0.229305 -0.635,-0.0088 -0.0529,-0.264582 0.14993,-0.635 0.42334,-0.80257 0.30868,-0.176387 0.34395,-0.405692 0.0882,-0.555625 -0.14111,-0.08819 -0.23812,-0.07937 -0.54681,0.05292 -0.55562,0.238125 -0.60854,0.32632 -0.53798,1.031875 0.0441,0.502707 0.097,0.65264 0.29986,0.846667 0.29104,0.29986 0.67028,0.3175 0.98778,0.07055 0.2734,-0.220487 0.3175,-0.220487 0.53798,-0.0088 0.30868,0.291043 0.60855,0.3175 0.88195,0.07937 0.33514,-0.282222 0.23812,-0.493887 -0.23813,-0.529167 l -0.37041,-0.02646 -0.009,-1.305278 c -0.009,-0.881945 -0.0529,-1.340555 -0.12348,-1.42875 -0.13229,-0.15875 -0.22048,-0.16757 -0.32631,-0.02646 z"
       id="path2095" />
    <path
       style="stroke-width:0.00881945"
       inkscape:connector-curvature="0"
       d="m -125.95426,46.359737 c -0.0264,0.105832 0.0353,0.352777 0.17639,0.61736 0.12348,0.246945 0.22049,0.48507 0.22049,0.529167 0,0.05292 -0.11465,0.264583 -0.26458,0.47625 -0.30868,0.45861 -0.33514,0.723195 -0.0882,0.855485 0.15875,0.07937 0.20285,0.06174 0.33514,-0.185207 0.0794,-0.14993 0.21167,-0.352778 0.29104,-0.45861 0.13229,-0.17639 0.14993,-0.16757 0.48507,0.326317 0.28222,0.405695 0.38806,0.49389 0.56445,0.47625 0.32632,-0.03527 0.30868,-0.255762 -0.0794,-0.899582 -0.20285,-0.32632 -0.3616,-0.608543 -0.3616,-0.64382 0,-0.02645 0.17639,-0.246943 0.39688,-0.47625 0.34396,-0.370415 0.38805,-0.45861 0.30868,-0.60854 -0.14111,-0.273403 -0.29986,-0.211668 -0.70556,0.238125 -0.40569,0.45861 -0.38805,0.46743 -0.72319,-0.141113 -0.16757,-0.30868 -0.46743,-0.361597 -0.55563,-0.105832 z"
       id="path2097" />
    <path
       style="stroke-width:0.00966441"
       inkscape:connector-curvature="0"
       d="m -51.246107,42.991371 c -0.359434,0.241142 -0.433805,0.444606 -0.347039,1.062531 0.02488,0.263751 0.01265,0.482285 -0.04947,0.482285 -0.409029,0 -4.152144,0.248679 -5.62709,0.369249 -0.991547,0.08289 -2.776345,0.203464 -3.966201,0.271285 -1.189871,0.06782 -3.111016,0.188393 -4.263702,0.271285 -1.165065,0.07535 -2.640012,0.158251 -3.28452,0.188393 -0.656904,0.0226 -1.499723,0.05274 -1.871565,0.07535 -0.371828,0.01508 -3.135779,0.04522 -6.135238,0.06782 -7.67216,0.05275 -10.225405,0.241142 -10.225405,0.730963 0,0.03768 0.13632,0.09796 0.285076,0.143179 0.223099,0.06028 0.706471,0.04521 1.834366,-0.04522 1.053536,-0.08289 2.813545,-0.135643 5.627075,-0.15825 5.218062,-0.03767 10.336962,-0.165787 12.394441,-0.293893 0.8924,-0.06029 2.416912,-0.158249 3.408473,-0.218534 0.991547,-0.06782 2.664789,-0.173321 3.718326,-0.233606 1.053522,-0.06782 2.454097,-0.165785 3.098606,-0.226073 1.375785,-0.12057 3.371289,-0.248676 4.325649,-0.278818 l 0.656905,-0.01508 0.0371,0.602855 c 0.02487,0.587784 0.285076,1.152961 0.644509,1.386567 0.148728,0.09796 0.2231,0.09043 0.619733,-0.03767 0.520556,-0.165785 2.776345,-1.552353 3.160568,-1.929137 0.309867,-0.316498 0.198309,-0.474749 -0.656903,-0.904283 -0.359434,-0.180857 -1.1155,-0.595319 -1.685638,-0.919354 -0.570137,-0.316501 -1.115499,-0.58025 -1.227056,-0.58025 -0.09908,0 -0.309852,0.08289 -0.47099,0.188394 z"
       id="path2109" />
    <path
       style="stroke-width:0.01171904"
       inkscape:connector-curvature="0"
       d="m -46.681074,51.821492 c -1.417047,0.829028 -2.226786,1.208265 -3.347965,1.60514 -4.095431,1.42875 -7.147528,2.02847 -12.597696,2.460625 -3.052098,0.246943 -11.756812,0.14111 -14.731063,-0.17639 -1.681769,-0.185207 -7.272093,-1.049515 -8.766987,-1.358195 -0.654028,-0.14111 -1.603923,-0.361597 -2.086648,-0.502707 l -0.887603,-0.238125 0.0934,-0.582083 c 0.07787,-0.48507 0.04679,-0.608542 -0.186857,-0.714375 -0.233576,-0.105835 -0.451597,-0.08819 -1.837499,0.176388 -0.87203,0.16757 -1.697342,0.370417 -1.853053,0.458612 -0.264722,0.14993 -0.264722,0.176388 0.01589,0.573263 0.342587,0.49389 1.790762,2.107847 2.055484,2.284237 0.327014,0.229305 0.763038,-0.0088 0.763038,-0.423335 0,-0.194027 0.07787,-0.511527 0.186857,-0.696735 0.186858,-0.379237 0.498298,-0.440972 1.105607,-0.220487 1.370328,0.48507 8.657995,1.693335 12.177263,2.010835 1.759616,0.15875 2.771802,0.185207 7.630235,0.194027 5.932911,0.0088 6.477945,-0.01765 10.339764,-0.48507 3.612705,-0.449792 7.645826,-1.516945 10.791361,-2.87514 1.105607,-0.47625 3.550396,-1.957915 3.550396,-2.160762 0,-0.229305 -0.171267,-0.423333 -0.373732,-0.414515 -0.0934,0 -1.012152,0.48507 -2.039911,1.084792 z"
       id="path2117" />
  </g>
</svg>
