<?xml version="1.0" encoding="UTF-8" standalone="no"?>
<!-- Created with Inkscape (http://www.inkscape.org/) -->

<svg
   xmlns:dc="http://purl.org/dc/elements/1.1/"
   xmlns:cc="http://creativecommons.org/ns#"
   xmlns:rdf="http://www.w3.org/1999/02/22-rdf-syntax-ns#"
   xmlns:svg="http://www.w3.org/2000/svg"
   xmlns="http://www.w3.org/2000/svg"
   xmlns:sodipodi="http://sodipodi.sourceforge.net/DTD/sodipodi-0.dtd"
   xmlns:inkscape="http://www.inkscape.org/namespaces/inkscape"
   width="637.35547mm"
   height="191.83981mm"
   viewBox="0 0 637.35546 191.83981"
   version="1.1"
   id="svg8404"
   inkscape:version="0.92.5 (2060ec1f9f, 2020-04-08)"
   sodipodi:docname="earth_mars.svg">
  <defs
     id="defs8398" />
  <sodipodi:namedview
     id="base"
     pagecolor="#ffffff"
     bordercolor="#666666"
     borderopacity="1.0"
     inkscape:pageopacity="0.0"
     inkscape:pageshadow="2"
     inkscape:zoom="0.175"
     inkscape:cx="1602.6939"
     inkscape:cy="31.895043"
     inkscape:document-units="mm"
     inkscape:current-layer="layer1"
     showgrid="false"
     fit-margin-top="0"
     fit-margin-left="0"
     fit-margin-right="0"
     fit-margin-bottom="0"
     inkscape:window-width="1920"
     inkscape:window-height="1080"
     inkscape:window-x="1920"
     inkscape:window-y="0"
     inkscape:window-maximized="0" />
  <metadata
     id="metadata8401">
    <rdf:RDF>
      <cc:Work
         rdf:about="">
        <dc:format>image/svg+xml</dc:format>
        <dc:type
           rdf:resource="http://purl.org/dc/dcmitype/StillImage" />
        <dc:title></dc:title>
      </cc:Work>
    </rdf:RDF>
  </metadata>
  <g
     inkscape:label="Layer 1"
     inkscape:groupmode="layer"
     id="layer1"
     transform="translate(880.14912,-72.961495)">
    <g
       id="g10925">
      <path
         id="path10135"
         d="m -479.76847,74.089643 c -0.38804,0.635 -0.70554,2.116667 -0.84667,4.056944 -0.2822,4.021668 -0.2822,4.056945 -0.70553,4.021668 -0.1764,0 -0.8114,-1.340557 -1.34057,-2.963334 -1.4464,-4.339167 -2.3636,-4.868334 -3.70417,-2.187223 -1.30526,2.54 -2.25776,13.79361 -1.23473,14.640277 0.3528,0.282223 0.59973,0.282223 0.91723,-0.03528 0.45861,-0.45861 0.88194,-4.26861 0.9525,-8.325556 0,-2.504721 0.38807,-4.162777 0.8114,-3.704167 0.0705,0.105833 0.49387,1.12889 0.91721,2.293057 2.43416,6.632223 4.16279,6.773333 4.83306,0.388056 0.42333,-4.021667 0.52917,-3.951112 1.86973,0.740833 0.81137,2.716387 2.15194,4.691944 3.24554,4.691944 0.9525,0 0.84667,-0.77611 -0.42333,-3.35139 -0.635,-1.305277 -1.41111,-3.880554 -1.905,-6.349999 -0.49387,-2.328333 -0.91721,-4.374444 -1.02304,-4.621389 -0.3175,-0.811389 -1.69333,-0.388055 -2.36363,0.705556 z"
         inkscape:connector-curvature="0"
         style="stroke-width:0.03527778" />
      <path
         id="path10137"
         d="m -817.58845,75.430198 c -0.14112,0.246945 -0.52917,1.658056 -0.81139,3.104445 l -0.52917,2.645832 -1.51694,0.17639 c -1.30528,0.14111 -1.65806,0.388056 -2.92806,2.116667 -2.18722,2.928056 -2.78694,3.175 -2.78694,1.09361 0,-1.058334 -0.17639,-1.481667 -0.88195,-1.940277 -1.12889,-0.740833 -1.69333,-0.705557 -3.35139,0.14111 -1.79916,0.917223 -2.11666,0.881946 -2.11666,-0.14111 0,-2.151944 -2.75167,-3.31611 -4.79778,-2.010833 -2.36361,1.446389 -3.52778,6.420556 -1.97556,8.466666 1.12889,1.516944 3.73945,1.481667 5.64445,-0.14111 1.02305,-0.846667 1.02305,-0.846667 1.65805,-0.17639 0.77611,0.881944 2.18723,0.917223 3.06917,0.105834 0.38806,-0.352777 1.27,-0.670277 1.97556,-0.705557 0.70555,-0.03528 2.01083,-0.14111 2.89277,-0.211667 1.48167,-0.07055 1.62278,-0.211666 2.2225,-1.481666 1.69334,-3.739444 2.18723,-4.162777 2.54,-2.04611 0.38806,2.469443 0.49389,2.822223 1.27,3.739443 0.88195,1.164167 2.46945,1.27 3.4925,0.246946 0.67028,-0.670279 1.02306,-2.681113 0.45861,-2.398889 -0.17639,0.07056 -0.74083,0.352776 -1.27,0.635 -0.88194,0.423333 -1.05833,0.423333 -1.34055,-0.03528 -0.17639,-0.282223 -0.28222,-1.023057 -0.24695,-1.658057 0.10584,-1.058333 0.28223,-1.234723 2.2225,-2.04611 1.16417,-0.458613 2.15195,-0.846667 2.2225,-0.846667 0.0353,0 0.0706,0.811387 0.0706,1.763887 0,0.98778 0.24694,2.328334 0.49389,2.998613 0.74083,1.763887 1.76389,1.658054 2.96333,-0.352779 0.52917,-0.846667 1.02306,-1.552221 1.12889,-1.552221 0.10583,-0.03528 0.42333,0.493887 0.70556,1.128887 0.98777,2.08139 1.55222,1.481667 1.86972,-2.010833 0.24694,-2.575277 0.21166,-3.210277 -0.21167,-3.668887 -0.84667,-0.81139 -2.11667,-0.282223 -3.06917,1.305277 -0.88194,1.44639 -1.94027,1.975556 -1.65805,0.81139 0.10583,-0.3175 0.38805,-1.728613 0.59972,-3.069167 0.24695,-1.375834 0.59972,-2.681112 0.77611,-2.892778 0.56445,-0.705556 0.0353,-1.516945 -0.91722,-1.516945 -1.02306,0 -1.41111,0.635 -1.76389,2.645833 -0.56444,3.421944 -0.35278,3.175 -2.8575,3.280834 -1.27,0.03528 -2.29305,-0.03528 -2.29305,-0.17639 0,-0.176387 0.21166,-1.41111 0.49388,-2.822221 0.24695,-1.411111 0.38806,-2.645834 0.28223,-2.751667 -0.35278,-0.352778 -1.44639,-0.176389 -1.72861,0.246944 z m -17.10973,7.44361 c 0.10584,0.458613 -0.10583,0.599724 -0.9525,0.599724 -0.70555,0 -1.09361,-0.17639 -1.09361,-0.49389 0,-1.023054 1.86973,-1.128887 2.04611,-0.105834 z m 2.36362,2.610557 c -0.10584,0.740833 -0.35278,1.44639 -0.45862,1.552223 -0.45861,0.388054 -4.23333,1.128887 -4.62138,0.881944 -0.21167,-0.141111 -0.38806,-0.705557 -0.38806,-1.27 0,-1.023057 0.0353,-1.023057 1.76389,-0.9525 1.41111,0.07056 1.905,-0.07056 2.54,-0.740834 1.12889,-1.12889 1.44639,-0.9525 1.16417,0.529167 z m 4.05694,-0.599723 c 0,0.211666 -0.42333,0.81139 -0.9525,1.340556 -0.88194,0.881944 -0.98778,0.881944 -1.09361,0.282223 -0.10583,-0.423333 0.17639,-0.9525 0.67028,-1.305279 0.9525,-0.740834 1.37583,-0.846667 1.37583,-0.3175 z"
         inkscape:connector-curvature="0"
         style="stroke-width:0.03527778" />
      <path
         id="path10139"
         d="m -455.63847,78.252421 c -1.5522,1.728611 -1.97554,3.668887 -0.98777,4.515554 0.3175,0.246946 1.1289,0.49389 1.83444,0.529167 1.5875,0.03528 1.83446,0.635 0.84666,1.975556 -1.05833,1.41111 -0.98777,2.151944 0.21167,2.010834 0.70556,-0.07056 1.19946,-0.49389 1.7639,-1.516944 1.1289,-2.010833 1.05833,-3.386667 -0.21167,-4.16278 -0.56443,-0.3175 -1.34056,-0.59972 -1.69333,-0.59972 -1.0936,0 -1.23473,-0.423333 -0.42334,-1.27 0.8114,-0.881945 0.77611,-2.010834 -0.0706,-2.187223 -0.2822,-0.03528 -0.84667,0.282222 -1.27,0.705556 z"
         inkscape:connector-curvature="0"
         style="stroke-width:0.03527778" />
      <path
         id="path10141"
         d="m -461.67097,79.416588 c -1.905,0.59972 -2.46944,1.058333 -2.8222,2.398887 -0.3528,1.411113 -1.05834,1.62278 -1.3053,0.35278 -0.38804,-1.728613 -0.49387,-1.869723 -1.76387,-2.469447 -1.16417,-0.564443 -1.37583,-0.564443 -2.2225,-0.105833 -1.16417,0.635 -2.54,3.280833 -2.54,4.79778 0,1.5875 1.48167,3.280833 2.71637,3.13972 0.52917,-0.03528 1.3053,-0.493887 1.7639,-1.023054 0.56443,-0.670279 1.1289,-0.917223 1.97556,-0.917223 0.7761,0 1.30527,-0.211666 1.44637,-0.529166 0.3175,-0.846667 0.74084,-0.599724 1.23473,0.705556 0.84667,2.398887 2.15194,1.305277 2.15194,-1.834446 v -2.2225 l 1.41113,-0.705554 c 0.9172,-0.458613 1.4111,-0.9525 1.4111,-1.411113 0,-0.846665 -1.1289,-0.917221 -3.45723,-0.176387 z m -6.6675,3.421944 c -0.2822,1.5875 -0.7761,2.469443 -1.27,2.293056 -1.12887,-0.35278 -0.21167,-3.421946 0.9878,-3.421946 0.38803,0 0.4586,0.282223 0.2822,1.12889 z"
         inkscape:connector-curvature="0"
         style="stroke-width:0.03527778" />
      <path
         id="path10143"
         d="m -494.40874,91.904921 c -1.27,1.975554 -3.59833,7.478887 -4.19806,10.018889 -0.28221,1.19944 -0.52917,3.175 -0.52917,4.33916 0,1.94028 -0.0705,2.18723 -0.74083,2.36361 -0.70554,0.17639 -0.74084,0.38806 -0.56444,2.11667 0.21167,2.15195 1.4111,5.18584 2.3636,6.06778 0.88197,0.81139 2.43417,0.52917 3.28084,-0.56444 0.91723,-1.23472 1.5875,-5.92667 1.02306,-7.16139 -0.3175,-0.70556 -0.67027,-0.88195 -1.905,-0.98778 l -1.51693,-0.10584 -0.0353,-1.76388 c -0.0705,-2.75167 1.09363,-6.667502 3.28083,-11.041945 1.65807,-3.316113 1.9403,-4.056947 1.51697,-4.30389 -0.8114,-0.529167 -0.9878,-0.423333 -1.97557,1.023056 z"
         inkscape:connector-curvature="0"
         style="stroke-width:0.03527778" />
      <path
         id="path10145"
         d="m -844.08206,92.822142 c -2.64584,2.2225 -7.90223,10.371668 -8.36084,12.946938 -0.28222,1.44639 -0.52916,1.5875 -1.5875,0.91723 -0.52917,-0.35278 -0.77611,-0.35278 -1.09361,-0.0353 -0.9525,0.9525 -1.37583,8.39611 -0.56444,9.98361 0.3175,0.635 0.77611,0.91723 1.5875,0.98778 0.9525,0.10583 1.44639,-0.17639 3.28083,-1.94028 2.32833,-2.2225 4.19806,-4.65666 4.19806,-5.53861 0,-0.635 -1.05834,-1.27 -2.18723,-1.27 -0.45861,0 -1.19944,-0.3175 -1.69333,-0.67028 l -0.84667,-0.67028 0.59973,-1.94028 c 0.56444,-1.79916 2.57527,-5.25639 4.26861,-7.337773 0.38805,-0.529166 1.05833,-1.375833 1.44639,-1.940279 0.38805,-0.564444 1.30527,-1.5875 2.01083,-2.293054 0.74083,-0.705556 1.34055,-1.44639 1.34055,-1.658056 0,-0.705557 -1.30527,-0.458611 -2.39888,0.45861 z"
         inkscape:connector-curvature="0"
         style="stroke-width:0.03527778" />
      <path
         id="path10147"
         d="m -791.58873,116.52881 c -2.15195,0.3175 -2.64584,0.59972 -4.48028,2.32833 -5.00944,4.72723 -5.60917,11.64167 -1.16417,13.44084 1.79917,0.70555 3.24556,0.70555 5.64445,0 4.55083,-1.34056 7.3025,-4.48028 6.985,-7.97278 -0.21167,-2.08139 -2.15195,-5.99722 -3.56306,-7.19667 -0.9525,-0.81139 -1.51694,-0.91722 -3.42194,-0.59972 z m 2.75166,2.99861 c 0.91723,0.98778 2.15195,3.70417 2.18723,4.72722 0,2.43417 -2.32834,4.97417 -5.53861,5.96195 -2.50473,0.77611 -4.79778,0.28222 -5.60917,-1.27 -0.9525,-1.86972 0.70555,-6.35 3.28083,-8.85472 1.12889,-1.09362 1.23472,-1.12889 1.65806,-0.56445 0.59972,0.81139 1.02305,0.81139 1.79916,-0.0705 0.81139,-0.91723 1.30528,-0.88195 2.2225,0.0705 z"
         inkscape:connector-curvature="0"
         style="stroke-width:0.03527778" />
      <path
         id="path10149"
         d="m -496.45484,122.27909 c -5.1153,1.86972 -8.5725,5.00944 -11.71223,10.61861 -4.16277,7.51417 -4.2686,14.99305 -0.24694,21.02555 2.78694,4.23334 7.83167,5.92667 13.26444,4.51556 7.9375,-2.08139 13.26443,-8.00806 15.02833,-16.75695 0.7761,-3.88055 0.74083,-7.90222 -0.10583,-10.15999 -1.34057,-3.66889 -4.86834,-7.79639 -7.97277,-9.34862 -2.50473,-1.23472 -4.6214,-1.23472 -8.255,0.10584 z m 4.7272,2.29305 c 1.16417,0.67028 1.7639,0.67028 1.7639,0 0,-1.65805 3.73944,1.37584 6.10307,4.86834 2.75166,4.1275 3.175,6.42055 2.1872,11.95916 -0.5997,3.42195 -1.48167,5.60917 -3.38667,8.46667 -1.76387,2.57528 -3.35137,3.88055 -7.02027,5.67972 -2.8575,1.41111 -3.175,1.48167 -6.1736,1.48167 -2.75166,0 -3.38666,-0.10584 -4.9389,-0.9525 -2.11666,-1.09361 -3.35139,-2.36361 -4.40973,-4.51556 -2.3636,-4.69194 -2.3636,-10.4775 0,-15.76916 1.65807,-3.66889 6.985,-10.23056 7.54947,-9.31334 0.38803,0.635 1.44637,0.45861 2.1872,-0.35277 1.72863,-1.97556 4.3039,-2.61056 6.13833,-1.55223 z"
         inkscape:connector-curvature="0"
         style="stroke-width:0.03527778" />
      <path
         id="path10153"
         d="m -856.21762,125.80687 c -2.82222,0.28222 -4.09222,0.77611 -9.98361,4.05694 -6.70278,3.73944 -11.64167,11.99444 -13.37028,22.36611 -1.79917,10.61861 0.59972,18.97944 7.26722,25.50583 4.79778,4.72722 11.00667,7.19667 19.15584,7.58472 8.71361,0.42334 16.01611,-2.36361 21.16666,-8.07861 2.11667,-2.36361 5.15056,-7.51416 6.52639,-11.07722 1.86972,-4.93889 2.46945,-7.97278 2.46945,-12.48833 0,-7.47889 -2.01084,-12.87639 -6.70278,-17.78 -3.06917,-3.21028 -5.60917,-5.04472 -9.66611,-6.91444 -4.19806,-1.97556 -6.77334,-2.75167 -9.91306,-2.99862 -1.55222,-0.10583 -3.13972,-0.24694 -3.52778,-0.3175 -0.38805,-0.0353 -1.94027,0 -3.42194,0.14112 z m 8.60778,2.64583 c 8.32555,1.62278 17.21555,7.69055 20.14361,13.68778 3.24555,6.70277 3.175,16.40416 -0.24695,24.27111 -3.31611,7.62 -9.03111,13.51138 -14.88722,15.38111 -1.76389,0.52916 -1.83444,0.52916 -2.89278,-0.24695 -0.74083,-0.56444 -1.79916,-0.88194 -3.31611,-1.02305 -2.11666,-0.21167 -2.18722,-0.24695 -1.48166,-0.74084 0.77611,-0.56444 3.35139,-3.59833 4.445,-5.25638 0.35277,-0.49389 0.635,-1.37584 0.635,-1.94028 0,-0.70556 0.45861,-1.51695 1.5875,-2.71639 1.09361,-1.16417 1.5875,-2.01083 1.5875,-2.68111 0,-0.52917 0.35277,-1.65806 0.77611,-2.46945 0.70555,-1.34055 0.74083,-1.62277 0.3175,-2.64583 -0.24695,-0.635 -0.59972,-1.97556 -0.74084,-2.96333 -0.14111,-0.98778 -0.45861,-2.15195 -0.67027,-2.54 -0.45861,-0.88195 -3.175,-3.24556 -3.73945,-3.24556 -0.21166,0 -1.62278,-0.635 -3.10444,-1.41111 -2.89278,-1.51694 -5.3975,-1.905 -6.24417,-0.88194 -0.59972,0.74083 -0.21167,1.09361 1.55222,1.34055 1.65806,0.24695 7.23195,2.99861 8.60778,4.26861 1.16417,1.02306 1.83445,2.43417 1.83445,3.73945 0,0.59972 0.17638,1.41111 0.35277,1.79916 0.45861,0.84667 -0.45861,4.05695 -2.08139,7.23195 -0.59972,1.19944 -1.09361,2.32833 -1.09361,2.50472 0,0.17639 -0.70555,0.67028 -1.55222,1.09361 -1.37583,0.70556 -1.5875,0.98778 -1.97555,2.50472 -0.21167,0.9525 -0.70556,2.01084 -1.05834,2.32834 -0.635,0.56444 -0.70555,0.56444 -1.5875,-0.38806 -0.9525,-1.09361 -0.9525,-1.44639 -0.3175,-6.70278 0.14111,-1.19944 0.0353,-2.18722 -0.3175,-2.99861 -0.42333,-1.09361 -0.77611,-1.30528 -2.68111,-1.905 -1.19944,-0.35278 -2.29305,-0.81139 -2.46944,-1.02305 -0.17639,-0.21167 -0.42334,-1.905 -0.52917,-3.73945 -0.14111,-1.83444 -0.42333,-3.84528 -0.635,-4.445 -0.56444,-1.55222 -0.10583,-2.89278 1.51694,-4.37444 1.41112,-1.27 1.48167,-1.76389 0.21167,-1.76389 -1.05833,0 -2.46944,1.19944 -3.42194,2.96333 -0.81139,1.48167 -0.81139,1.69334 -0.35278,2.92806 0.24694,0.74083 0.56444,3.06916 0.67028,5.15055 0.21166,3.59834 0.28222,3.88056 1.16416,4.65667 0.49389,0.42333 1.62278,0.88194 2.46945,1.02306 2.78694,0.42333 2.75166,0.35277 2.18722,6.84388 -0.17639,2.29306 -0.10583,2.71639 0.49389,3.35139 0.38805,0.42334 0.88194,1.12889 1.09361,1.55222 0.21167,0.45862 0.84667,0.91723 1.34056,1.05834 0.88194,0.21166 0.88194,0.24694 0.28222,0.49389 -0.38806,0.14111 -1.79917,0.28222 -3.13973,0.28222 -1.30527,0.0353 -3.17499,0.3175 -4.09222,0.635 -1.62277,0.56444 -1.83444,0.56444 -3.59833,0 -4.83306,-1.51695 -10.33639,-6.13833 -12.7,-10.65389 -3.63361,-6.94972 -3.95111,-15.52222 -0.91722,-24.4475 0.42333,-1.19944 0.88194,-2.18722 1.05833,-2.18722 0.14111,0 0.28222,0.14111 0.28222,0.3175 0,0.52917 3.84528,2.15194 5.15056,2.15194 0.9525,0 1.51694,0.28223 2.32833,1.12889 2.99861,3.28084 3.21028,3.45722 4.23334,3.45722 1.30527,0 1.23472,-0.98777 -0.0706,-1.65805 -0.49389,-0.24695 -1.69333,-1.30528 -2.71639,-2.39889 -1.44639,-1.55222 -2.04611,-1.94028 -2.89278,-1.94028 -1.5875,0 -4.97416,-1.76389 -5.18583,-2.71639 -0.56444,-2.25777 4.90361,-8.99583 8.85472,-10.83027 1.94028,-0.91723 5.715,-1.51695 9.98361,-1.62278 1.27,0 1.34056,0.9525 0.17639,2.39889 -1.76389,2.15194 -2.25778,3.42194 -1.86972,4.48028 0.21167,0.52916 0.35278,1.02305 0.35278,1.09361 0,0.10583 -1.34056,1.51694 -2.96334,3.175 -3.38666,3.38666 -3.73944,4.30388 -2.71638,6.6675 0.70555,1.62277 1.83444,2.46944 2.75166,2.11666 0.49389,-0.17639 0.42334,-0.35278 -0.35278,-1.16416 -1.23472,-1.30528 -1.79916,-2.82223 -1.27,-3.45723 0.21167,-0.28222 0.3175,-0.49389 0.17639,-0.49389 -0.10583,0 0.0706,-0.35277 0.45861,-0.74083 0.70556,-0.81139 0.84667,-0.9525 3.56306,-3.52778 1.76389,-1.65805 1.83444,-1.76388 1.62278,-3.10444 -0.17639,-1.23472 -0.0353,-1.69333 1.19944,-3.59833 1.51695,-2.32834 1.55222,-3.03389 0.3175,-4.40973 -0.38805,-0.38805 -0.67028,-0.91722 -0.67028,-1.12888 0,-0.59973 3.56306,-0.52917 6.77334,0.10583 z m -0.10584,54.11611 c 0.42334,0.28222 0.35278,0.38805 -0.35277,0.52916 -1.19945,0.28223 -11.60639,0.42334 -11.60639,0.17639 0,-0.10583 0.21166,-0.21166 0.45861,-0.24694 8.00805,-0.81139 10.795,-0.91722 11.50055,-0.45861 z"
         inkscape:connector-curvature="0"
         style="stroke-width:0.03527778" />
      <path
         id="path10165"
         d="m -248.02874,174.10214 c -1.3053,0.10584 -2.5753,0.42334 -2.82223,0.67028 -0.24694,0.24694 -0.45861,1.12889 -0.45861,1.94028 -0.0353,0.81139 -0.14113,1.65805 -0.28223,1.86972 -0.4939,0.81139 -11.85333,7.33778 -18.69723,10.795 -9.6661,4.83305 -20.0025,7.47889 -42.93304,11.00667 -13.29973,2.04611 -36.72416,3.81 -71.08472,5.32694 -6.59694,0.28222 -15.24,0.70556 -19.22637,0.88194 -3.9864,0.17639 -12.94697,0.49389 -19.93197,0.70556 -6.985,0.21167 -17.6036,0.56444 -23.6361,0.77611 -6.45583,0.24695 -28.78667,0.42333 -54.68056,0.45861 -24.05944,0 -51.1175,0.14111 -60.14861,0.28222 -9.0311,0.14112 -24.2711,0.3175 -33.86666,0.42334 -9.59557,0.10583 -30.62111,0.35278 -46.74306,0.56444 -29.45694,0.42334 -61.84194,0.24695 -72.31944,-0.38805 -3.10444,-0.17639 -13.6525,-0.56445 -23.45972,-0.88195 -9.80722,-0.28222 -19.22639,-0.70555 -20.99028,-0.88194 -21.80166,-2.18722 -35.17194,-4.26861 -50.09444,-7.76111 -1.72861,-0.42334 -5.08,-1.12889 -7.40833,-1.62278 -9.17222,-1.94028 -17.99167,-5.25639 -19.75556,-7.47889 -0.38805,-0.45861 -0.9525,-1.19944 -1.27,-1.5875 -1.27,-1.62278 -1.86972,0.52917 -0.67028,2.46944 1.94028,3.21028 8.50195,5.85612 21.16667,8.5725 2.82222,0.59973 6.38528,1.37584 7.9375,1.76389 10.40694,2.46945 26.17611,5.08 39.51111,6.52639 13.29972,1.44639 14.14639,1.51695 26.63472,1.76389 6.49111,0.10583 16.65111,0.49389 22.57778,0.81139 8.50194,0.45861 16.51,0.59972 38.1,0.56444 25.78805,-0.0353 68.75639,-0.45861 69.14443,-0.70555 0.28223,-0.14111 67.38056,-0.67028 82.9028,-0.635 7.09083,0 19.79083,0.0353 28.2222,0.10583 8.4314,0.0353 19.7203,-0.0353 25.04723,-0.14111 23.28333,-0.45861 28.18694,-0.56444 30.51527,-0.70555 1.37583,-0.0706 7.4789,-0.24695 13.58196,-0.38806 6.10304,-0.14111 11.7475,-0.28222 12.5236,-0.3175 0.77611,-0.0353 4.7625,-0.17639 8.81944,-0.3175 4.09223,-0.14111 9.80723,-0.38806 12.7,-0.56444 2.92806,-0.17639 8.78417,-0.42334 13.0528,-0.52917 4.2686,-0.14111 11.11247,-0.45861 15.16943,-0.74083 4.09221,-0.28223 9.8425,-0.49389 12.80583,-0.52917 3.42194,-0.0353 5.36221,-0.17639 5.36221,-0.38806 0,-0.24694 0.14113,-0.24694 0.45863,0 0.24693,0.21167 1.19943,0.24695 2.46943,0.0706 1.1289,-0.17639 3.81,-0.38806 5.99723,-0.52917 2.1872,-0.10583 5.29167,-0.35278 6.9497,-0.52916 1.65807,-0.17639 4.65667,-0.42334 6.7028,-0.52917 3.66887,-0.24695 4.62137,-0.3175 7.7611,-0.70556 6.0325,-0.74083 9.6661,-1.23472 15.52223,-2.15194 13.40554,-2.04611 23.84777,-4.40972 29.88027,-6.77333 4.9389,-1.94028 24.9414,-12.45306 26.38777,-13.86417 0.635,-0.635 1.4464,-0.3175 2.82223,1.09361 1.5875,1.62278 2.3989,1.69333 3.42194,0.35278 0.8114,-1.09361 1.79916,-5.15056 1.51696,-6.27945 -0.24696,-1.05833 -1.4464,-2.18722 -2.18723,-2.11666 -0.35277,0 -1.69333,0.14111 -2.9986,0.24694 z"
         inkscape:connector-curvature="0"
         style="stroke-width:0.03527778" />
      <path
         id="path10171"
         d="m -491.33957,226.13686 c -0.28223,0.3175 -0.38807,1.83445 -0.35277,4.26861 l 0.0353,3.77473 -1.34057,1.97555 c -0.7761,1.09361 -1.65803,2.04611 -2.01083,2.11667 -0.70554,0.14111 -2.01083,-0.84667 -2.01083,-1.51695 0,-0.635 2.43416,-3.31611 3.56306,-3.91583 1.23473,-0.635 1.37583,-1.55222 0.21167,-1.55222 -1.51694,0 -4.02167,1.94028 -4.9036,3.77472 -1.16417,2.43417 -0.9525,3.63361 0.84666,4.55083 1.97554,1.02306 4.2686,0 5.18584,-2.25777 l 0.4586,-1.12889 0.635,1.12889 c 0.7761,1.48166 2.0461,2.2225 3.28083,1.905 0.70557,-0.17639 0.9525,-0.45862 0.9525,-1.12889 0,-0.74084 -0.1411,-0.84667 -0.70556,-0.67028 -1.16417,0.35278 -1.72861,-1.62278 -1.97554,-6.59695 -0.10583,-2.39888 -0.24696,-4.55083 -0.3175,-4.79777 -0.21167,-0.56445 -1.05833,-0.52917 -1.55223,0.0705 z"
         inkscape:connector-curvature="0"
         style="stroke-width:0.03527778" />
      <path
         id="path10173"
         d="m -471.86624,227.8302 c -1.65806,2.68111 -2.61056,8.99583 -1.55223,10.26583 0.59973,0.77611 3.31613,0.81139 3.91583,0.0705 0.6703,-0.81138 0.1764,-1.62277 -0.9525,-1.51694 -0.88193,0.10583 -0.98777,0 -0.98777,-0.91722 0,-0.84667 0.21167,-1.09361 1.5875,-1.62278 1.09361,-0.42333 1.5875,-0.81139 1.5875,-1.27 0,-0.56444 -0.24693,-0.67028 -1.30526,-0.59972 -1.51697,0.10583 -1.5875,-0.10584 -0.77613,-2.25778 0.3175,-0.81139 0.49389,-1.72861 0.38806,-2.04611 -0.28223,-0.635 -1.51693,-0.70556 -1.905,-0.10583 z"
         inkscape:connector-curvature="0"
         style="stroke-width:0.03527778" />
      <path
         id="path10175"
         d="m -544.36207,229.20603 c -1.65807,0.77611 -3.73944,1.51694 -4.5861,1.65805 -1.3053,0.24695 -1.51697,0.38806 -1.51697,1.12889 0,0.77611 0.1764,0.88195 1.3053,0.98778 0.70554,0.0706 2.0461,-0.21167 2.9986,-0.56444 0.91723,-0.38806 2.75167,-1.12889 4.05694,-1.65806 2.39889,-0.9525 3.06916,-1.65805 2.36363,-2.50472 -0.59974,-0.74083 -1.27,-0.59972 -4.6214,0.9525 z"
         inkscape:connector-curvature="0"
         style="stroke-width:0.03527778" />
      <path
         id="path10179"
         d="m -483.71957,229.4177 c -0.1411,0.10583 -0.24694,0.52916 -0.24694,0.88194 0,0.42333 0.24694,0.635 0.84667,0.635 1.02304,0 1.37583,-0.42333 1.05833,-1.19944 -0.21166,-0.56445 -1.23473,-0.77612 -1.65806,-0.3175 z"
         inkscape:connector-curvature="0"
         style="stroke-width:0.03527778" />
      <path
         id="path10181"
         d="m -478.21624,231.99297 c -1.97556,1.19945 -2.46943,2.92806 -0.98777,3.59834 1.19944,0.52916 1.0936,1.37583 -0.21166,2.15194 -1.27,0.70556 -1.19947,1.44639 0.17637,1.5875 1.41113,0.17639 2.57529,-0.77611 3.10446,-2.43417 0.42333,-1.41111 0.38804,-1.48166 -0.59973,-2.29305 -1.16417,-0.91722 -1.16417,-0.88195 0.4586,-1.69333 0.9525,-0.49389 1.09363,-0.70556 0.74083,-1.12889 -0.56443,-0.67028 -1.34053,-0.635 -2.6811,0.21166 z"
         inkscape:connector-curvature="0"
         style="stroke-width:0.03527778" />
      <path
         id="path10183"
         d="m -545.2793,237.53158 c 0.14113,5.43278 0.49389,6.80862 1.65806,6.80862 1.27,0 1.48167,-0.81139 0.74083,-2.78695 -0.38806,-1.09361 -0.7761,-3.35139 -0.91723,-5.53861 -0.21166,-3.35139 -0.2822,-3.66889 -0.9525,-3.66889 -0.67027,0 -0.67027,0.21167 -0.52916,5.18583 z"
         inkscape:connector-curvature="0"
         style="stroke-width:0.03527778" />
      <path
         id="path10185"
         d="m -466.71567,234.07436 c -1.48167,1.44639 -1.72863,1.905 -1.72863,3.10445 0,0.74083 0.17639,1.55222 0.42333,1.79916 0.59973,0.59973 2.96333,0.52917 3.9864,-0.14111 0.59973,-0.38805 1.69333,-0.56444 3.42193,-0.56444 1.69334,0 2.8575,-0.17639 3.42197,-0.52917 0.70553,-0.45861 0.88193,-0.45861 1.12887,-0.0705 0.17639,0.28222 0.3175,0.59972 0.3175,0.74083 0,0.17639 0.56446,0.28222 1.23473,0.28222 0.84666,0 1.37583,0.21167 1.65806,0.70556 0.52917,0.84666 2.92804,0.98777 3.98637,0.24694 0.77613,-0.59972 0.42334,-1.30528 -0.635,-1.30528 -0.42333,0 -0.98777,-0.14111 -1.27,-0.3175 -0.74083,-0.45861 0.0353,-2.04611 1.19947,-2.50472 0.88193,-0.35278 1.2347,-1.51694 0.52916,-1.94028 -0.56446,-0.35277 -2.7164,0.77611 -3.56306,1.905 -0.9525,1.30528 -1.37584,1.37584 -1.37584,0.28223 0,-0.42334 -0.24693,-1.09362 -0.52916,-1.48167 -0.52917,-0.67028 -0.56444,-0.67028 -1.62277,-0.0353 -0.9878,0.56445 -1.1289,0.59972 -1.69333,0.0706 -0.8114,-0.74084 -0.9878,-0.70556 -2.36363,0.3175 -1.37584,1.05833 -1.55221,1.09361 -1.55221,0.28222 0,-0.84667 -1.7639,-2.57528 -2.57529,-2.57528 -0.38804,0 -1.48167,0.77611 -2.39887,1.72861 z m 2.5047,1.19945 c 0,0.70555 -1.05833,2.01083 -1.5875,2.01083 -0.5997,0 -0.35277,-0.88194 0.45863,-1.86972 0.635,-0.70556 1.12887,-0.77611 1.12887,-0.14111 z"
         inkscape:connector-curvature="0"
         style="stroke-width:0.03527778" />
      <path
         id="path10187"
         d="m -526.37041,233.29825 c -0.70556,0.17639 -0.84666,1.16417 -0.24693,1.76389 0.4586,0.45861 1.62277,0.21167 1.8697,-0.42333 0.21167,-0.59973 -0.88193,-1.48167 -1.62277,-1.34056 z"
         inkscape:connector-curvature="0"
         style="stroke-width:0.03527778" />
      <path
         id="path10189"
         d="m -484.6368,234.07436 c -0.24694,0.56445 -0.38804,1.62278 -0.3175,2.36361 0.10583,1.19945 0.21166,1.37584 0.98779,1.37584 0.84667,0 0.88194,-0.10584 0.98777,-2.39889 0.10583,-2.11667 0.0353,-2.36361 -0.56443,-2.36361 -0.42334,0 -0.84667,0.38805 -1.09363,1.02305 z"
         inkscape:connector-curvature="0"
         style="stroke-width:0.03527778" />
      <path
         id="path10191"
         d="m -444.98457,234.07436 c -0.56444,0.35278 -1.4464,1.05834 -1.905,1.55222 -0.7761,0.84667 -0.8114,0.98778 -0.38807,2.71639 0.52917,2.2225 1.4464,2.89278 3.59834,2.75167 1.23473,-0.0706 1.51696,-0.24694 1.51696,-0.81139 0,-0.49389 -0.28223,-0.74083 -1.05833,-0.88194 -1.48167,-0.24695 -1.3053,-1.02306 0.35276,-1.62278 2.2225,-0.74083 3.38667,-2.78695 2.2225,-3.95111 -0.635,-0.635 -3.13973,-0.49389 -4.33916,0.24694 z m 1.83443,1.69334 c -0.3175,0.3175 -0.70553,0.45861 -0.84666,0.3175 -0.14111,-0.14112 -0.0353,-0.38806 0.24696,-0.56445 0.88193,-0.56444 1.2347,-0.38805 0.5997,0.24695 z"
         inkscape:connector-curvature="0"
         style="stroke-width:0.03527778" />
      <path
         id="path10193"
         d="m -514.55234,234.8152 c -0.59973,0.35277 -1.3053,0.98777 -1.48167,1.37583 -1.09363,2.01083 0.21167,5.08 2.46944,5.96194 1.02306,0.38806 1.5875,0.38806 2.78693,0.0706 1.83447,-0.49389 3.42197,-1.94028 2.8575,-2.61056 -0.3175,-0.35277 -0.7761,-0.35277 -2.5047,0.10584 -1.905,0.49389 -2.15196,0.49389 -2.68113,0 -0.49387,-0.52917 -0.42333,-0.635 0.8114,-1.27 1.69333,-0.88195 2.92806,-2.92806 2.25777,-3.77473 -0.67027,-0.77611 -3.13971,-0.70555 -4.51554,0.14112 z"
         inkscape:connector-curvature="0"
         style="stroke-width:0.03527778" />
      <path
         id="path10195"
         d="m -521.1493,235.55603 c -0.49387,0.59972 -1.02304,1.48167 -1.12887,1.94028 -0.91724,3.56305 2.54,6.59694 4.79776,4.19805 0.88194,-0.9525 0.74084,-1.12889 -1.23473,-1.30528 -0.9525,-0.10583 -1.05833,-0.24694 -1.16416,-1.51694 -0.0705,-1.23472 0.0706,-1.5875 0.9525,-2.39889 1.27,-1.12889 1.12889,-2.01083 -0.3175,-2.01083 -0.67027,0 -1.30527,0.35278 -1.905,1.09361 z"
         inkscape:connector-curvature="0"
         style="stroke-width:0.03527778" />
      <path
         id="path10197"
         d="m -530.14514,236.01464 c -0.21166,0.24694 -0.70553,1.34056 -1.05833,2.36361 -0.4586,1.27 -0.81137,1.83445 -1.12887,1.72861 -0.28223,-0.0705 -1.16417,-0.14111 -1.97557,-0.10583 -1.34056,0.0705 -1.48166,0 -1.69333,-0.91722 -0.28223,-1.37584 -1.79917,-2.78695 -2.3636,-2.2225 -0.4939,0.49389 0.0353,3.06916 1.16417,5.60916 0.70553,1.69334 1.5522,1.97556 2.61053,0.81139 0.4939,-0.56444 0.91723,-0.635 2.11667,-0.45861 1.79917,0.24695 2.11667,-0.10583 3.5278,-4.09222 0.7761,-2.11667 0.84666,-2.64583 0.4586,-2.89278 -0.67027,-0.42333 -1.19944,-0.38805 -1.65807,0.17639 z"
         inkscape:connector-curvature="0"
         style="stroke-width:0.03527778" />
      <path
         id="path10199"
         d="m -526.37041,236.96714 c -1.27,0.70556 -0.56443,5.60917 0.77611,5.60917 0.98779,0 1.23473,-0.67028 1.12889,-2.82223 -0.1411,-2.2225 -0.91723,-3.35138 -1.905,-2.78694 z"
         inkscape:connector-curvature="0"
         style="stroke-width:0.03527778" />
      <path
         id="path10201"
         d="m -485.44817,246.70381 c -0.3175,0.35277 -1.27,2.18722 -2.15197,4.05694 -1.97553,4.23333 -2.57527,4.445 -2.89277,1.05833 -0.24693,-2.50472 -0.91723,-3.95111 -1.76389,-3.95111 -0.59971,0 -1.905,2.50472 -2.82221,5.29167 -0.3175,1.05833 -1.02306,2.8575 -1.51696,3.98639 -0.7761,1.79916 -0.81137,2.11666 -0.35277,2.57528 0.28223,0.28222 0.74083,0.42333 1.02307,0.3175 0.70553,-0.28223 2.01083,-2.99862 2.29303,-4.79778 0.28223,-1.76389 1.19947,-1.76389 1.65807,0.0353 0.67027,2.61055 2.15193,3.175 3.52777,1.30527 1.05833,-1.34055 2.36363,-4.19805 2.36363,-5.08 0.0353,-1.30527 0.98776,0.56445 1.2347,2.43417 0.3175,2.36361 1.09363,4.16278 1.79917,4.16278 0.28223,0 0.88196,-0.17639 1.27,-0.38806 0.49389,-0.28222 0.81139,-0.28222 1.09363,0 0.52916,0.52917 2.57526,0.49389 3.88053,-0.10583 1.51697,-0.67028 3.24557,-0.98778 5.22113,-0.9525 1.4111,0.0353 1.65804,-0.10583 2.01084,-0.88195 0.24693,-0.49388 0.42333,-1.09361 0.42333,-1.37583 0,-0.28222 0.74083,-0.88194 1.69333,-1.30528 2.18721,-1.05833 2.18721,-1.83444 -0.0353,-1.97555 -1.79917,-0.10584 -2.61054,0.28222 -5.29167,2.64583 -1.5522,1.37583 -2.2225,1.34056 -2.08137,-0.0353 0.1411,-1.19944 -0.52917,-2.04611 -1.41113,-1.76389 -0.35277,0.10584 -0.9172,0 -1.19944,-0.24694 -0.38806,-0.3175 -0.70556,-0.3175 -1.30526,0 -1.09363,0.59972 -2.36363,2.54 -2.36363,3.66889 0,1.09361 -0.84667,1.30528 -1.23471,0.3175 -0.14113,-0.3175 -0.3175,-2.36361 -0.42333,-4.48028 -0.21167,-4.16278 -0.4939,-5.11528 -1.48167,-5.11528 -0.35279,0 -0.88196,0.28223 -1.16416,0.59973 z m 8.18443,7.62 c 0,0.88194 -0.59973,1.65805 -1.30527,1.65805 -0.635,0 -0.56446,-0.74083 0.10584,-1.69333 0.70553,-0.98778 1.19943,-0.98778 1.19943,0.0353 z"
         inkscape:connector-curvature="0"
         style="stroke-width:0.03527778" />
      <path
         id="path10203"
         d="m -521.07874,249.13797 c -0.3175,0.3175 -0.9525,1.76389 -1.4111,3.175 -0.70557,2.18722 -0.9878,2.64584 -1.97557,3.10445 -1.44639,0.70555 -1.44639,1.79916 0.0353,1.79916 0.77613,-0.0353 0.9525,0.14111 0.9525,0.81139 0,1.05834 0.88197,2.75167 1.5875,3.03389 1.86973,0.70556 4.40973,-0.24694 4.40973,-1.62278 0,-0.59972 -0.17639,-0.70555 -0.9525,-0.52916 -0.56443,0.10583 -1.27,0.3175 -1.5875,0.42333 -0.4586,0.17639 -0.74083,0 -1.02306,-0.635 -0.5997,-1.27 -0.21167,-1.905 1.41113,-2.36361 0.74083,-0.17639 1.7286,-0.67028 2.1872,-1.02306 l 0.8114,-0.635 -0.8114,-0.45861 c -0.49387,-0.24694 -1.30527,-0.3175 -2.01083,-0.17639 -1.44637,0.24695 -1.48167,0.0353 -0.52917,-2.71639 0.4939,-1.44638 0.56447,-2.08138 0.28223,-2.36361 -0.52916,-0.52916 -0.70556,-0.49389 -1.37583,0.17639 z"
         inkscape:connector-curvature="0"
         style="stroke-width:0.03527778" />
      <path
         id="path10205"
         d="m -463.61124,250.90186 c -1.0936,0.70556 -1.30527,1.09361 -1.30527,2.11667 0,1.02305 0.17637,1.30528 1.23471,1.79916 0.67029,0.3175 1.23473,0.77612 1.23473,0.98778 0,0.21167 -0.8114,0.77611 -1.7639,1.23472 -2.89277,1.37584 -1.65804,2.78695 1.51696,1.72862 2.71637,-0.88195 3.59834,-3.52778 1.65804,-4.97417 -1.16417,-0.84667 -1.34054,-1.51695 -0.52917,-1.83445 0.74084,-0.28222 0.6703,-1.16416 -0.10583,-1.5875 -0.49387,-0.28222 -0.9525,-0.14111 -1.94027,0.52917 z"
         inkscape:connector-curvature="0"
         style="stroke-width:0.03527778" />
      <path
         id="path10207"
         d="m -514.02317,255.02936 c -1.83447,1.55222 -2.2225,3.70417 -0.9525,5.32695 0.56443,0.70555 1.02303,0.91722 2.15193,0.91722 1.19944,0 1.62277,-0.21167 2.61057,-1.27 1.83443,-1.905 1.48166,-3.84528 -0.88197,-5.08 -1.76387,-0.88195 -1.76387,-0.88195 -2.92803,0.10583 z m 2.89276,2.39889 c 0,0.81139 -0.7761,1.72861 -1.4111,1.72861 -0.4939,0 -0.70556,-0.24694 -0.70556,-0.81139 0,-0.45861 0.10583,-0.9525 0.24693,-1.05833 0.3528,-0.38806 1.86973,-0.28222 1.86973,0.14111 z"
         inkscape:connector-curvature="0"
         style="stroke-width:0.03527778" />
      <path
         id="path10209"
         d="m -580.80401,264.44853 c -0.10583,0.17639 0.0353,0.35278 0.3175,0.35278 0.3175,0 0.56444,-0.17639 0.56444,-0.35278 0,-0.21167 -0.1411,-0.35278 -0.3175,-0.35278 -0.21167,0 -0.4586,0.14111 -0.56444,0.35278 z"
         inkscape:connector-curvature="0"
         style="stroke-width:0.03527778" />
    </g>
  </g>
</svg>
