<?xml version="1.0" encoding="UTF-8" standalone="no"?>
<!-- Created with Inkscape (http://www.inkscape.org/) -->

<svg
   xmlns:dc="http://purl.org/dc/elements/1.1/"
   xmlns:cc="http://creativecommons.org/ns#"
   xmlns:rdf="http://www.w3.org/1999/02/22-rdf-syntax-ns#"
   xmlns:svg="http://www.w3.org/2000/svg"
   xmlns="http://www.w3.org/2000/svg"
   xmlns:sodipodi="http://sodipodi.sourceforge.net/DTD/sodipodi-0.dtd"
   xmlns:inkscape="http://www.inkscape.org/namespaces/inkscape"
   width="82.948692mm"
   height="68.609566mm"
   viewBox="0 0 82.94869 68.609565"
   version="1.1"
   id="svg3301"
   inkscape:version="0.92.5 (2060ec1f9f, 2020-04-08)"
   sodipodi:docname="mem_pyramid.svg">
  <defs
     id="defs3295" />
  <sodipodi:namedview
     id="base"
     pagecolor="#ffffff"
     bordercolor="#666666"
     borderopacity="1.0"
     inkscape:pageopacity="0.0"
     inkscape:pageshadow="2"
     inkscape:zoom="0.35"
     inkscape:cx="-97.144639"
     inkscape:cy="18.227309"
     inkscape:document-units="mm"
     inkscape:current-layer="layer1"
     showgrid="false"
     fit-margin-bottom="0"
     fit-margin-top="0"
     fit-margin-left="0"
     fit-margin-right="0"
     inkscape:window-width="1920"
     inkscape:window-height="1080"
     inkscape:window-x="1920"
     inkscape:window-y="0"
     inkscape:window-maximized="0" />
  <metadata
     id="metadata3298">
    <rdf:RDF>
      <cc:Work
         rdf:about="">
        <dc:format>image/svg+xml</dc:format>
        <dc:type
           rdf:resource="http://purl.org/dc/dcmitype/StillImage" />
        <dc:title></dc:title>
      </cc:Work>
    </rdf:RDF>
  </metadata>
  <g
     inkscape:label="Layer 1"
     inkscape:groupmode="layer"
     id="layer1"
     transform="translate(-46.972079,-85.046414)">
    <g
       id="g4045"
       transform="matrix(0.125,0,0,0.125,51.310264,96.872773)">
      <g
         id="g3220"
         transform="matrix(0.03527778,0,0,-0.03527778,-203.76147,543.21139)">
        <path
           d="m 13547,18053 c -3,-16 -22,-50 -42,-78 -32,-44 -280,-419 -383,-580 -21,-33 -87,-134 -146,-225 -177,-273 -211,-325 -373,-580 -86,-135 -208,-326 -271,-425 -63,-99 -127,-199 -141,-222 -14,-23 -52,-84 -84,-135 -32,-51 -136,-219 -231,-373 -96,-154 -189,-305 -208,-335 -88,-141 -123,-198 -230,-375 -185,-307 -298,-497 -372,-623 -38,-64 -112,-191 -166,-282 -108,-184 -235,-401 -345,-590 -83,-144 -269,-465 -344,-593 -28,-49 -51,-90 -51,-91 0,-2 -37,-66 -82,-142 -108,-185 -246,-424 -323,-559 -34,-60 -95,-166 -135,-235 -40,-69 -82,-141 -92,-160 -11,-19 -42,-71 -68,-115 -26,-44 -77,-132 -112,-195 -36,-63 -119,-209 -185,-325 -66,-115 -157,-277 -203,-360 -45,-82 -102,-184 -125,-225 -23,-41 -73,-131 -110,-200 -37,-69 -92,-168 -121,-220 -75,-136 -420,-772 -464,-855 -20,-38 -50,-95 -67,-125 -38,-68 -290,-538 -365,-680 -31,-58 -82,-152 -113,-210 -32,-58 -67,-123 -78,-145 -11,-22 -59,-112 -108,-201 -138,-253 -324,-624 -463,-929 -176,-382 -185,-402 -256,-550 -34,-71 -109,-231 -167,-355 -120,-256 -213,-444 -303,-610 -34,-63 -89,-167 -123,-230 -33,-63 -70,-134 -83,-157 -34,-60 -84,-193 -84,-224 0,-26 21,-45 35,-31 4,4 13,22 21,41 l 14,33 172,-5 c 95,-3 229,-10 298,-15 318,-26 543,-35 754,-29 215,7 767,41 1131,72 99,8 248,19 330,25 83,6 168,13 190,15 22,3 162,12 310,20 267,14 433,21 1225,50 223,8 569,22 770,30 201,8 516,19 700,25 320,10 691,28 1070,50 272,16 651,29 1055,35 204,3 483,10 620,15 374,14 1278,29 2195,35 448,4 880,10 960,15 389,24 1063,32 1825,21 996,-15 1424,-15 1610,-2 297,21 812,10 1123,-24 173,-19 236,-19 252,0 7,8 19,15 26,15 8,0 14,4 14,10 0,10 -34,31 -47,29 -42,-7 -54,3 -80,64 -41,94 -415,832 -621,1222 -52,99 -208,369 -347,600 -138,231 -268,447 -287,480 -20,33 -78,130 -130,215 -52,85 -153,252 -225,370 -71,118 -159,261 -194,318 -35,56 -71,114 -79,127 -110,178 -181,292 -215,345 -108,170 -268,424 -320,510 -96,157 -129,211 -183,298 -29,45 -52,89 -52,96 0,8 -7,20 -17,27 -9,8 -39,50 -68,94 -29,44 -132,204 -230,355 -98,151 -201,311 -229,355 -44,67 -213,326 -346,529 -19,29 -74,111 -121,182 -89,134 -174,266 -294,454 -38,61 -142,220 -230,355 -88,134 -185,284 -217,332 -185,287 -401,612 -513,773 -116,166 -168,238 -350,485 -28,39 -78,107 -111,151 -295,404 -330,451 -661,873 -29,36 -144,188 -257,336 -113,149 -251,329 -306,400 -55,72 -126,164 -157,205 -32,41 -65,84 -74,95 -9,11 -71,88 -136,170 -66,83 -170,210 -231,284 -61,73 -176,216 -254,318 -79,101 -177,228 -218,282 -102,132 -349,436 -491,606 -65,77 -180,219 -257,315 -185,232 -457,490 -516,490 -7,0 -16,-12 -19,-27 z m 81,-94 c 88,-67 313,-308 450,-479 86,-107 203,-251 262,-320 174,-206 395,-481 582,-725 97,-126 227,-291 289,-365 137,-166 197,-240 317,-389 l 92,-116 -47,-3 c -63,-5 -794,15 -1088,30 -140,6 -368,8 -585,4 -971,-17 -1171,-18 -1277,-8 -59,6 -207,16 -328,23 -121,6 -224,15 -228,19 -7,6 108,200 238,400 23,36 104,162 180,280 75,118 166,260 202,315 155,240 272,421 327,507 33,51 164,251 291,443 127,193 239,362 248,378 21,32 40,34 75,6 z m -1363,-2409 c 99,-6 241,-15 315,-21 191,-14 517,-14 1015,1 432,13 511,12 1235,-15 474,-18 658,-19 751,-4 59,9 72,8 82,-4 7,-8 46,-58 87,-112 41,-53 97,-124 123,-158 26,-34 127,-168 224,-297 180,-240 322,-424 472,-610 81,-99 327,-429 531,-710 52,-72 109,-150 126,-173 258,-346 448,-621 716,-1032 46,-71 125,-193 176,-270 257,-395 393,-604 447,-690 77,-123 192,-299 396,-610 91,-137 219,-335 285,-438 65,-103 178,-277 249,-385 216,-329 257,-393 253,-398 -3,-2 -49,-14 -104,-26 -95,-21 -120,-22 -639,-22 -297,-1 -1370,2 -2385,6 -1729,6 -2070,11 -2535,39 -246,14 -2727,29 -3100,19 -390,-12 -551,-24 -900,-69 -82,-11 -199,-25 -260,-31 -137,-13 -399,-45 -525,-65 -141,-22 -250,-33 -390,-40 -69,-3 -190,-13 -270,-21 -218,-21 -216,-22 -169,57 17,30 62,110 99,179 61,114 173,318 245,445 31,56 161,290 208,375 16,30 48,87 70,125 22,39 61,108 87,155 26,47 100,177 165,290 65,113 138,241 163,285 24,44 48,85 52,90 5,6 35,57 68,115 32,58 101,177 152,265 102,176 154,266 192,335 31,55 201,351 276,480 30,52 77,134 104,182 l 49,88 57,-6 c 31,-4 98,-1 147,5 332,43 352,44 970,71 138,6 354,18 480,26 127,8 478,19 781,24 304,6 646,14 760,20 115,5 448,10 739,10 689,1 1399,15 1800,36 365,19 917,21 1140,4 139,-10 150,-10 162,7 7,9 12,22 10,28 -9,28 -63,35 -379,46 -328,12 -407,10 -1028,-21 -300,-16 -1049,-29 -1625,-30 -286,-1 -630,-5 -765,-10 -135,-5 -476,-14 -758,-20 -281,-5 -594,-14 -695,-20 -100,-6 -270,-14 -377,-20 -107,-5 -226,-12 -265,-15 -38,-2 -160,-7 -270,-10 -206,-6 -386,-22 -654,-55 -104,-13 -159,-17 -171,-10 -17,9 -12,21 54,132 93,156 182,308 336,573 67,116 150,257 184,315 35,58 96,164 137,235 40,72 76,132 79,135 3,3 50,79 105,170 184,305 250,415 296,485 25,39 76,121 114,183 39,62 88,141 110,177 22,35 63,100 90,145 49,80 51,81 85,76 19,-3 116,-10 215,-16 z m 1680,-5990 c 138,-5 345,-16 460,-22 136,-8 566,-13 1225,-14 558,-1 1452,-6 1985,-10 534,-5 1184,-9 1445,-8 h 475 l 125,27 c 118,25 126,25 141,9 9,-9 60,-89 114,-177 124,-203 475,-767 615,-990 59,-93 128,-204 153,-245 173,-283 651,-1074 727,-1205 9,-16 96,-160 192,-320 96,-159 239,-416 318,-570 78,-154 172,-336 208,-405 36,-69 125,-243 197,-387 l 131,-263 h -31 c -16,0 -102,7 -190,15 -277,24 -594,29 -945,14 -179,-8 -372,-14 -430,-13 -58,1 -294,4 -525,7 -1029,15 -2105,16 -2365,1 -158,-9 -631,-18 -1240,-24 -926,-9 -1301,-16 -2025,-40 -165,-6 -534,-15 -820,-20 -286,-6 -644,-17 -795,-25 -607,-32 -904,-45 -1320,-60 -239,-8 -475,-17 -525,-20 -92,-5 -656,-27 -1202,-45 -553,-19 -864,-35 -1258,-65 -1075,-84 -1317,-98 -1660,-98 -201,0 -374,6 -525,18 -124,10 -299,19 -388,21 -94,1 -168,6 -174,12 -7,7 0,28 20,64 17,30 55,101 85,158 30,58 71,134 91,170 45,81 256,501 318,635 25,55 69,149 97,208 28,60 51,111 51,113 0,2 18,41 41,87 22,45 56,119 75,165 19,46 43,98 53,116 11,18 33,66 51,107 39,89 55,126 110,244 23,50 60,131 83,180 47,103 258,515 319,625 14,25 53,99 88,165 84,161 159,302 183,344 10,19 78,145 149,280 72,136 159,297 194,358 35,62 64,114 64,116 0,2 24,49 53,103 30,54 95,177 146,272 l 93,172 h 67 c 36,0 96,5 133,10 36,5 178,16 315,24 136,9 273,20 303,26 80,15 327,47 545,70 105,11 226,25 270,30 342,41 433,50 605,60 107,6 229,12 270,14 200,7 2817,-4 3035,-14 z"
           id="path2445"
           inkscape:connector-curvature="0" />
        <path
           d="m 13176,16665 c -68,-28 -100,-55 -127,-107 -23,-45 -24,-70 -4,-108 16,-32 42,-48 128,-80 59,-22 127,-80 127,-108 0,-45 -79,-102 -140,-102 -30,0 -80,37 -80,60 0,5 -9,10 -20,10 -41,0 -19,-90 29,-115 67,-34 164,-11 225,54 23,24 30,42 34,86 l 5,56 -50,48 c -33,31 -72,57 -119,75 -85,34 -94,41 -94,76 0,69 112,137 207,126 52,-6 60,-2 45,20 -26,39 -85,43 -166,9 z"
           id="path2447"
           inkscape:connector-curvature="0" />
        <path
           d="m 13510,16619 c -14,-6 -37,-23 -51,-39 -26,-28 -27,-32 -34,-224 -6,-173 -5,-199 9,-221 9,-14 23,-25 30,-25 11,0 15,41 18,213 3,229 6,239 55,252 56,14 116,-43 63,-60 -11,-4 -34,-18 -50,-32 -44,-36 -40,-71 13,-131 34,-38 48,-64 61,-118 19,-74 38,-104 68,-104 21,0 23,21 4,58 -7,15 -16,47 -20,72 -8,49 -41,114 -75,144 -28,26 -27,31 14,56 78,48 87,89 30,139 -38,33 -85,40 -135,20 z"
           id="path2449"
           inkscape:connector-curvature="0" />
        <path
           d="m 14417,16543 c -14,-21 -37,-64 -51,-96 -36,-82 -56,-76 -76,20 -23,113 -51,122 -92,31 -14,-29 -37,-99 -53,-156 -25,-88 -27,-105 -14,-113 8,-5 17,-9 21,-9 13,0 35,53 47,111 10,48 15,56 31,52 14,-4 21,-18 26,-49 16,-110 93,-73 145,69 12,35 40,50 53,28 3,-4 10,-59 16,-121 11,-119 19,-140 52,-140 19,0 20,5 13,98 -11,168 -48,312 -80,312 -7,0 -24,-17 -38,-37 z"
           id="path2451"
           inkscape:connector-curvature="0" />
        <path
           d="m 13904,16548 c -53,-85 -77,-149 -95,-251 -11,-62 -22,-124 -26,-139 -5,-25 -2,-28 20,-28 19,0 28,7 36,31 6,18 11,42 11,55 0,33 26,54 69,54 48,0 61,-14 61,-65 0,-34 4,-44 23,-52 23,-10 50,-7 43,6 -3,4 -9,51 -15,103 -6,64 -19,118 -36,160 -15,35 -29,74 -32,88 -10,46 -42,66 -59,38 z m 39,-161 c 23,-56 22,-57 -15,-57 -55,0 -64,12 -48,59 17,54 40,53 63,-2 z"
           id="path2453"
           inkscape:connector-curvature="0" />
        <path
           d="m 12423,14981 c -47,-30 -66,-50 -87,-92 -31,-64 -32,-84 -6,-127 15,-25 41,-43 98,-69 116,-54 151,-87 152,-145 1,-98 -132,-150 -246,-97 -33,16 -48,19 -56,11 -20,-20 7,-57 56,-80 128,-61 296,24 296,148 0,52 -21,117 -43,138 -12,11 -63,41 -113,65 -49,25 -96,53 -103,61 -20,24 -5,62 45,116 33,35 57,51 92,60 79,20 76,18 62,35 -23,28 -82,18 -147,-24 z"
           id="path2455"
           inkscape:connector-curvature="0" />
        <path
           d="m 13284,14813 c -9,-20 -23,-66 -31,-102 -9,-38 -26,-77 -40,-92 -27,-29 -29,-42 -8,-59 10,-8 14,-30 14,-72 -1,-72 17,-98 69,-98 39,0 102,41 102,66 0,24 -27,27 -59,8 -29,-17 -32,-17 -48,-1 -12,12 -16,30 -14,59 4,54 11,63 67,78 53,15 56,39 6,52 -18,5 -35,14 -38,21 -2,7 6,45 19,85 16,49 20,75 13,82 -19,19 -37,10 -52,-27 z"
           id="path2457"
           inkscape:connector-curvature="0" />
        <path
           d="m 14034,14646 c -27,-18 -64,-50 -82,-70 -32,-36 -59,-46 -66,-23 -3,6 -7,25 -10,40 -8,34 -30,44 -61,27 -13,-7 -30,-10 -38,-7 -26,10 -40,-11 -53,-80 -7,-37 -15,-83 -19,-101 -8,-32 -7,-33 21,-30 25,3 32,10 48,56 13,37 24,52 37,52 11,0 19,-7 19,-15 0,-23 1,-29 11,-47 19,-35 48,-19 121,67 96,114 135,126 118,35 -15,-77 -12,-186 6,-204 25,-26 34,-9 34,62 0,36 5,104 12,150 18,125 -8,149 -98,88 z"
           id="path2459"
           inkscape:connector-curvature="0" />
        <path
           d="m 13525,14651 c -54,-25 -86,-62 -95,-110 -14,-77 42,-141 123,-141 81,0 105,42 35,61 -72,19 -105,36 -111,59 -5,21 -3,22 38,16 90,-14 163,26 150,82 -11,51 -70,65 -140,33 z"
           id="path2461"
           inkscape:connector-curvature="0" />
        <path
           d="m 12736,14615 c -22,-34 -21,-112 3,-152 12,-18 35,-37 56,-44 35,-13 37,-16 32,-50 -6,-47 -54,-153 -78,-175 -17,-15 -21,-15 -42,-1 -13,8 -28,30 -33,49 -5,18 -17,34 -27,36 -14,3 -17,-4 -17,-41 0,-45 28,-99 62,-121 43,-26 128,57 169,164 18,48 45,289 35,315 -12,31 -34,14 -51,-41 -18,-59 -36,-74 -60,-54 -20,16 -19,55 1,85 13,20 14,28 4,40 -18,22 -35,18 -54,-10 z"
           id="path2463"
           inkscape:connector-curvature="0" />
        <path
           d="m 13039,14591 c -24,-24 -30,-38 -27,-63 2,-28 10,-37 47,-55 55,-28 56,-29 41,-48 -10,-12 -23,-15 -52,-10 -35,6 -38,5 -38,-18 0,-29 28,-57 58,-57 31,0 80,52 87,93 9,45 -8,75 -51,93 -41,17 -43,27 -8,43 31,14 29,45 -4,49 -14,2 -33,-7 -53,-27 z"
           id="path2465"
           inkscape:connector-curvature="0" />
        <path
           d="m 15164,14463 c -33,-40 -99,-170 -123,-241 -43,-126 -16,-289 61,-377 68,-77 92,-53 34,33 -42,63 -70,172 -64,251 3,45 17,85 57,168 29,59 64,120 78,135 22,23 24,30 13,43 -18,21 -32,19 -56,-12 z"
           id="path2467"
           inkscape:connector-curvature="0" />
        <path
           d="m 16147,14383 c -15,-14 -4,-38 60,-126 36,-51 75,-112 86,-137 50,-113 22,-293 -66,-411 -21,-29 -18,-59 6,-59 19,0 63,58 89,118 35,78 48,142 48,237 0,104 -15,144 -99,269 -69,102 -102,131 -124,109 z"
           id="path2469"
           inkscape:connector-curvature="0" />
        <path
           d="m 15278,14293 c -27,-17 -27,-17 -20,-103 7,-97 8,-134 2,-205 -4,-46 -2,-50 18,-53 16,-3 22,2 23,17 1,12 3,26 4,31 1,6 3,69 4,141 l 1,132 32,-7 c 47,-9 52,-19 29,-62 -23,-42 -26,-89 -11,-145 12,-42 34,-65 73,-74 24,-6 27,-4 27,16 0,13 -12,35 -26,50 -17,18 -28,42 -31,71 -4,36 -1,48 21,73 32,37 33,65 4,93 -47,43 -105,53 -150,25 z"
           id="path2471"
           inkscape:connector-curvature="0" />
        <path
           d="m 15612,14202 c -17,-32 -34,-82 -38,-112 -3,-30 -13,-70 -20,-89 -11,-25 -11,-37 -3,-47 18,-22 34,-16 46,16 10,27 15,30 56,30 41,0 47,-3 66,-35 15,-26 27,-35 47,-35 21,0 25,3 19,18 -16,37 -27,71 -60,181 -46,153 -64,165 -113,73 z m 52,-84 c 24,-34 20,-50 -11,-46 -28,3 -40,25 -29,54 8,20 22,17 40,-8 z"
           id="path2473"
           inkscape:connector-curvature="0" />
        <path
           d="m 16030,14198 c -11,-24 -20,-49 -20,-55 0,-7 -3,-13 -7,-13 -19,1 -33,18 -45,55 -9,27 -20,41 -33,43 -18,2 -23,-6 -34,-60 -7,-34 -28,-101 -47,-148 -36,-88 -37,-110 -6,-110 13,0 25,17 43,65 25,69 48,84 69,45 16,-30 58,-26 70,6 15,39 42,27 55,-26 17,-66 38,-104 59,-108 34,-7 39,13 17,72 -11,30 -26,97 -32,148 -13,106 -21,128 -50,128 -14,0 -26,-13 -39,-42 z"
           id="path2475"
           inkscape:connector-curvature="0" />
        <path
           d="m 13337,13970 c -19,-16 -55,-71 -82,-122 -59,-116 -53,-108 -69,-102 -8,3 -17,26 -20,52 -3,26 -8,71 -12,100 -8,71 -33,86 -76,45 -35,-33 -64,-86 -113,-214 -21,-52 -53,-124 -72,-161 -38,-72 -38,-102 -1,-96 18,2 31,23 65,103 24,55 57,141 75,190 27,72 37,90 53,90 17,0 21,-9 27,-55 10,-88 38,-169 61,-176 28,-9 41,9 91,126 33,79 49,105 63,105 16,0 18,-8 15,-85 -7,-161 36,-279 96,-267 14,3 43,-1 65,-9 40,-14 108,-7 130,15 22,22 -1,41 -51,41 -35,0 -54,5 -65,18 -27,30 -20,42 24,42 66,0 129,44 129,90 0,27 -30,62 -63,73 -9,4 -37,-3 -61,-15 -57,-27 -96,-87 -96,-145 0,-32 -4,-43 -15,-43 -35,0 -51,138 -35,295 8,80 8,110 -1,121 -16,20 -24,18 -62,-16 z m 273,-274 c 0,-16 -35,-27 -56,-19 -11,4 -12,9 -3,19 15,18 59,18 59,0 z"
           id="path2477"
           inkscape:connector-curvature="0" />
        <path
           d="m 14475,13755 c -16,-8 -44,-12 -61,-10 -42,7 -58,-12 -44,-51 6,-16 10,-60 8,-99 -3,-69 -3,-70 22,-70 22,0 26,7 45,79 l 20,79 53,26 c 34,16 52,31 50,41 -4,20 -55,23 -93,5 z"
           id="path2479"
           inkscape:connector-curvature="0" />
        <path
           d="m 14624,13758 c -5,-7 -8,-40 -8,-74 2,-74 19,-97 86,-120 26,-8 48,-19 48,-22 0,-15 -37,-101 -70,-161 -39,-73 -72,-100 -95,-81 -23,19 -18,61 15,110 16,25 30,50 30,57 0,41 -59,3 -90,-58 -42,-81 -12,-189 52,-189 43,0 113,73 157,164 42,87 122,332 114,352 -12,31 -41,14 -69,-43 -32,-64 -57,-76 -99,-49 -19,13 -25,26 -27,68 -2,40 -7,54 -20,56 -9,2 -20,-3 -24,-10 z"
           id="path2481"
           inkscape:connector-curvature="0" />
        <path
           d="m 14165,13719 c -45,-40 -61,-90 -46,-147 7,-26 22,-49 37,-59 23,-15 30,-15 67,-1 51,18 107,86 107,128 0,42 -20,80 -51,96 -43,22 -75,17 -114,-17 z m 90,-41 c 33,-15 32,-43 -4,-79 -24,-23 -34,-27 -53,-20 -35,12 -35,53 -1,85 33,30 26,29 58,14 z"
           id="path2483"
           inkscape:connector-curvature="0" />
        <path
           d="m 13795,13712 c -48,-26 -50,-30 -56,-77 -4,-28 -9,-64 -13,-81 -5,-21 -2,-34 7,-43 23,-19 46,-2 57,43 16,62 28,86 42,84 20,-4 28,-20 28,-55 0,-49 38,-46 71,5 33,50 62,50 70,-1 7,-46 19,-60 50,-55 29,4 37,39 14,58 -9,7 -15,29 -15,54 0,68 -9,86 -40,86 -15,0 -35,-9 -45,-20 -25,-27 -53,-25 -67,5 -14,32 -39,31 -103,-3 z"
           id="path2485"
           inkscape:connector-curvature="0" />
        <path
           d="m 13685,12096 c -124,-57 -200,-226 -147,-326 25,-48 89,-89 218,-140 161,-65 201,-115 183,-229 -14,-88 -81,-170 -174,-213 -42,-19 -66,-23 -145,-22 -63,0 -110,6 -139,18 -83,31 -83,-19 0,-62 39,-21 55,-23 149,-20 90,3 113,7 164,30 118,56 196,170 204,299 4,70 2,82 -23,127 -34,62 -70,87 -197,136 -172,67 -223,116 -200,194 29,94 94,153 177,160 61,5 80,30 42,57 -29,21 -54,19 -112,-9 z"
           id="path2487"
           inkscape:connector-curvature="0" />
        <path
           d="m 12965,12081 c -33,-15 -81,-47 -106,-69 -62,-55 -119,-165 -126,-241 -12,-124 35,-178 241,-282 187,-95 226,-132 226,-219 0,-110 -93,-170 -264,-170 -110,0 -175,17 -246,65 -62,42 -70,43 -70,10 0,-35 59,-89 127,-116 48,-18 79,-23 173,-23 136,-1 198,17 266,77 69,61 93,169 55,253 -30,67 -84,109 -230,180 -194,95 -220,119 -221,214 0,101 74,216 174,268 45,23 61,26 139,24 52,-1 87,2 87,8 0,18 -79,50 -122,50 -27,0 -66,-11 -103,-29 z"
           id="path2489"
           inkscape:connector-curvature="0" />
        <path
           d="m 14434,12080 c -34,-5 -77,-15 -96,-23 l -35,-15 -6,-193 c -3,-107 -15,-295 -27,-418 -12,-124 -19,-234 -16,-246 5,-18 14,-22 53,-24 142,-7 180,-4 248,18 116,39 267,103 320,136 163,103 212,286 133,500 -16,45 -36,74 -79,115 -140,136 -280,178 -495,150 z m 221,-64 c 115,-30 243,-120 287,-202 56,-104 62,-257 12,-341 -46,-79 -146,-137 -361,-209 -107,-36 -151,-46 -200,-45 -35,0 -68,3 -74,6 -11,7 -5,119 18,335 8,79 16,210 17,291 l 1,147 35,11 c 70,22 199,25 265,7 z"
           id="path2491"
           inkscape:connector-curvature="0" />
        <path
           d="m 11234,8470 c -83,-41 -87,-50 -92,-222 -9,-283 -6,-522 6,-550 7,-18 19,-28 33,-28 20,0 21,3 15,53 -17,137 -18,207 -5,358 14,169 17,264 9,288 -6,18 65,61 103,61 61,0 121,-56 119,-111 -1,-47 -37,-114 -91,-169 -70,-72 -70,-98 5,-239 62,-115 80,-141 101,-141 26,0 12,54 -41,159 -30,58 -57,114 -60,125 -4,13 9,34 46,75 28,31 59,74 69,97 74,165 -64,319 -217,244 z"
           id="path2493"
           inkscape:connector-curvature="0" />
        <path
           d="m 16026,8213 c -100,-113 -140,-185 -163,-298 -13,-65 -14,-92 -5,-143 19,-116 93,-232 147,-232 31,0 29,15 -7,54 -79,88 -110,241 -73,363 31,99 107,202 208,278 14,11 27,31 29,45 2,20 -2,26 -23,28 -22,3 -40,-12 -113,-95 z"
           id="path2495"
           inkscape:connector-curvature="0" />
        <path
           d="m 13596,8260 c -92,-36 -149,-92 -163,-160 -9,-47 18,-88 127,-188 55,-51 100,-100 100,-107 0,-22 -59,-84 -101,-106 -65,-33 -129,-18 -129,30 0,25 -11,33 -27,20 -7,-7 -13,-31 -13,-55 0,-51 20,-69 86,-80 71,-11 180,52 220,128 38,73 8,135 -125,258 -44,42 -81,84 -81,93 0,26 64,86 117,109 34,15 58,19 93,15 61,-7 83,5 55,32 -30,29 -101,34 -159,11 z"
           id="path2497"
           inkscape:connector-curvature="0" />
        <path
           d="m 17616,8261 c -11,-17 12,-55 58,-100 40,-39 47,-53 62,-120 15,-66 16,-95 7,-212 -13,-162 -27,-196 -107,-260 -92,-74 -67,-108 31,-43 111,73 148,183 141,410 -6,172 -25,232 -95,294 -43,38 -85,51 -97,31 z"
           id="path2499"
           inkscape:connector-curvature="0" />
        <path
           d="m 12603,8212 c -9,-20 -29,-77 -43,-127 -23,-75 -31,-91 -51,-95 -31,-7 -36,-43 -10,-67 13,-12 21,-33 22,-58 3,-55 27,-172 41,-198 25,-47 66,-59 106,-31 31,22 26,59 -8,60 -14,0 -30,1 -35,2 -16,3 -34,60 -41,129 l -7,60 43,7 c 58,9 102,33 98,54 -2,13 -16,18 -61,20 -34,2 -60,8 -63,15 -2,7 9,57 26,111 34,111 37,141 14,150 -11,4 -20,-5 -31,-32 z"
           id="path2501"
           inkscape:connector-curvature="0" />
        <path
           d="m 13894,8223 c -20,-87 -75,-297 -80,-305 -12,-19 -44,-196 -44,-243 1,-97 78,-142 170,-97 23,11 35,24 35,37 0,18 -6,20 -52,17 -28,-2 -62,2 -74,8 -20,11 -21,17 -15,92 8,100 17,118 59,118 71,0 202,50 194,73 -4,13 -45,15 -127,4 -87,-10 -88,-7 -51,124 18,61 33,131 34,153 2,35 -1,41 -20,44 -17,3 -24,-3 -29,-25 z"
           id="path2503"
           inkscape:connector-curvature="0" />
        <path
           d="m 16465,8135 c -55,-95 -111,-315 -99,-394 9,-59 35,-105 62,-109 55,-8 87,50 34,61 -16,3 -33,16 -39,29 -24,53 24,267 84,380 44,81 5,111 -42,33 z"
           id="path2505"
           inkscape:connector-curvature="0" />
        <path
           d="m 17274,8104 c -8,-20 -20,-71 -26,-114 l -12,-78 h -52 c -37,0 -64,-6 -95,-23 -36,-20 -44,-32 -56,-74 -8,-27 -17,-69 -20,-92 -4,-37 -1,-46 25,-73 53,-52 134,-32 184,45 30,46 53,45 78,-5 30,-59 117,-95 166,-69 38,20 29,37 -33,65 -119,52 -157,124 -117,220 12,28 15,59 12,112 -4,55 -2,77 9,88 19,18 8,34 -23,34 -19,0 -28,-8 -40,-36 z m -34,-270 c 0,-17 -44,-89 -73,-121 -25,-28 -81,-31 -96,-6 -11,20 14,76 46,105 45,41 123,55 123,22 z"
           id="path2507"
           inkscape:connector-curvature="0" />
        <path
           d="m 11544,8006 c -74,-33 -96,-119 -51,-206 36,-73 125,-116 187,-90 33,14 35,39 3,45 -12,3 -34,7 -47,10 -27,5 -81,48 -95,74 -8,14 -1,16 61,16 64,0 72,2 94,28 32,38 33,99 2,121 -28,20 -111,20 -154,2 z m 121,-57 c 11,-18 -27,-40 -60,-34 -64,12 -57,45 10,45 24,0 47,-5 50,-11 z"
           id="path2509"
           inkscape:connector-curvature="0" />
        <path
           d="m 12821,7990 c -19,-12 -42,-31 -52,-43 -41,-50 -49,-157 -18,-222 35,-71 118,-89 199,-44 75,42 61,64 -29,46 -91,-18 -131,16 -131,109 0,22 4,24 45,24 68,0 155,51 155,90 0,52 -109,77 -169,40 z"
           id="path2511"
           inkscape:connector-curvature="0" />
        <path
           d="m 12303,7985 c -39,-17 -92,-85 -109,-141 -17,-58 -1,-105 45,-128 62,-32 129,-14 176,49 35,45 45,136 21,183 -15,30 -24,34 -87,46 -9,2 -29,-2 -46,-9 z m 78,-65 c 25,-14 24,-50 -1,-99 -26,-53 -83,-68 -119,-32 -19,19 -19,21 -1,58 36,75 74,98 121,73 z"
           id="path2513"
           inkscape:connector-curvature="0" />
        <path
           d="m 11816,7959 c -2,-8 -9,-52 -15,-99 -7,-47 -14,-97 -17,-112 -5,-20 -1,-29 16,-38 29,-15 45,-1 59,54 18,71 56,83 63,21 3,-26 7,-30 33,-30 25,0 34,7 55,46 21,38 29,45 45,39 12,-4 22,-19 25,-36 4,-24 11,-30 38,-32 28,-3 32,0 32,20 0,13 -5,29 -12,36 -6,6 -11,26 -10,44 1,18 -3,48 -9,66 -13,41 -40,42 -85,2 -37,-32 -55,-31 -74,6 -14,25 -53,33 -65,14 -6,-10 -22,-8 -62,7 -7,3 -15,-1 -17,-8 z"
           id="path2515"
           inkscape:connector-curvature="0" />
        <path
           d="m 16213,7886 c -29,-30 -59,-71 -68,-92 -33,-80 -7,-162 62,-191 33,-13 40,-13 71,1 44,21 40,49 -8,56 -19,4 -45,11 -56,18 -60,32 -10,138 87,187 19,10 35,19 37,20 1,1 -2,14 -7,29 -17,44 -56,35 -118,-28 z"
           id="path2517"
           inkscape:connector-curvature="0" />
        <path
           d="m 14393,7912 c -3,-9 -16,-39 -28,-67 -13,-27 -33,-83 -46,-123 -25,-79 -20,-99 23,-89 19,5 28,23 54,109 l 31,102 49,13 c 47,12 82,40 67,54 -5,3 -39,9 -76,12 -58,6 -69,4 -74,-11 z"
           id="path2519"
           inkscape:connector-curvature="0" />
        <path
           d="m 14170,7912 c 0,-4 -14,-16 -31,-26 -41,-24 -86,-89 -94,-135 -23,-135 145,-155 213,-26 37,71 31,146 -16,181 -18,14 -72,19 -72,6 z m 59,-81 c 19,-12 8,-51 -25,-90 -40,-48 -104,-41 -104,10 0,5 16,27 36,49 36,39 64,49 93,31 z"
           id="path2521"
           inkscape:connector-curvature="0" />
        <path
           d="m 16806,7898 c -20,-30 -30,-98 -22,-142 8,-44 56,-96 89,-96 28,0 51,32 81,115 10,28 25,65 34,83 11,24 12,36 4,44 -17,17 -35,-3 -72,-83 -27,-58 -36,-70 -54,-67 -19,3 -21,9 -21,58 1,30 4,63 9,72 5,12 2,20 -13,27 -17,10 -23,8 -35,-11 z"
           id="path2523"
           inkscape:connector-curvature="0" />
        <path
           d="m 14571,7858 c -21,-29 -46,-67 -55,-85 -19,-37 -21,-124 -4,-141 22,-22 81,-14 131,18 26,17 60,30 76,30 16,0 35,7 42,16 11,14 10,19 -9,35 -17,13 -21,24 -16,43 11,44 -4,73 -52,105 -25,17 -51,31 -59,31 -8,0 -32,-24 -54,-52 z m 71,-103 c 6,-25 4,-33 -15,-47 -25,-20 -53,-23 -63,-7 -3,6 2,29 12,50 22,49 53,51 66,4 z"
           id="path2525"
           inkscape:connector-curvature="0" />
        <path
           d="m 15183,7889 c -31,-15 -46,-31 -61,-67 -25,-58 -38,-177 -23,-214 29,-77 163,-70 186,10 6,22 6,23 -57,16 -76,-8 -98,7 -82,54 8,22 17,28 49,32 78,11 135,54 135,103 0,23 -32,55 -71,71 -33,14 -39,13 -76,-5 z m 73,-63 c 18,-14 18,-15 -10,-26 -48,-18 -88,6 -48,29 23,14 35,13 58,-3 z"
           id="path2527"
           inkscape:connector-curvature="0" />
        <path
           d="m 16558,7891 c -36,-29 -62,-100 -54,-147 16,-81 106,-114 161,-58 33,32 55,87 55,133 0,58 -2,59 -115,87 -12,3 -32,-3 -47,-15 z m 110,-92 c 4,-23 -36,-69 -62,-69 -26,0 -46,17 -46,40 0,37 101,65 108,29 z"
           id="path2529"
           inkscape:connector-curvature="0" />
        <path
           d="m 14846,7878 c -2,-7 -9,-29 -16,-48 -7,-19 -15,-61 -17,-92 -4,-51 -2,-60 21,-83 16,-16 36,-25 56,-25 36,0 37,-10 15,-115 -28,-136 -39,-160 -65,-157 -30,3 -74,44 -91,84 -9,23 -9,37 1,67 20,61 -11,86 -41,34 -42,-72 -26,-135 53,-211 40,-38 50,-43 84,-40 36,3 41,7 66,58 16,31 39,111 54,180 14,69 36,160 50,203 28,91 31,142 8,151 -31,12 -174,7 -178,-6 z m 103,-67 c 10,-6 12,-19 7,-42 -8,-41 -23,-59 -50,-59 -32,0 -46,18 -36,46 5,13 7,24 5,24 -3,0 3,9 13,19 19,21 40,25 61,12 z"
           id="path2531"
           inkscape:connector-curvature="0" />
        <path
           d="m 11500,17946 c -25,-7 -103,-38 -175,-68 -71,-31 -147,-61 -168,-68 -44,-14 -57,-35 -34,-57 15,-15 28,-11 149,42 218,95 301,116 314,80 11,-28 -46,-179 -151,-400 -67,-142 -81,-183 -66,-198 21,-21 41,5 91,121 27,63 53,119 58,125 5,7 19,39 32,72 13,33 27,65 32,71 23,30 67,188 68,241 0,53 -52,66 -150,39 z"
           id="path2533"
           inkscape:connector-curvature="0" />
        <path
           d="m 16524,17777 c -23,-61 160,-217 434,-371 107,-60 146,-74 157,-56 11,18 -5,29 -177,133 -189,114 -260,168 -329,247 -52,59 -75,72 -85,47 z"
           id="path2535"
           inkscape:connector-curvature="0" />
        <path
           d="m 16355,17629 c -119,-217 -142,-268 -165,-362 -25,-104 -22,-149 13,-155 14,-3 17,4 17,40 0,58 24,153 55,224 40,90 116,215 129,211 6,-2 23,-26 39,-54 17,-31 63,-83 118,-134 51,-46 146,-144 213,-219 66,-74 148,-164 182,-200 81,-85 169,-188 334,-390 123,-152 306,-368 320,-380 3,-3 75,-88 159,-190 290,-349 783,-990 1031,-1340 116,-165 392,-547 612,-850 124,-171 340,-472 408,-570 59,-86 457,-684 539,-811 30,-46 172,-262 316,-479 298,-450 380,-576 419,-640 15,-25 44,-72 65,-105 21,-33 100,-159 175,-280 76,-121 148,-236 161,-255 12,-19 82,-132 155,-250 73,-118 143,-231 155,-250 39,-61 142,-233 198,-331 146,-255 181,-317 269,-479 96,-177 144,-267 258,-485 34,-66 88,-167 118,-225 227,-429 473,-949 627,-1325 32,-77 63,-153 71,-170 40,-91 115,-292 175,-469 46,-138 55,-156 74,-156 16,0 11,20 -59,225 -47,140 -49,144 -154,405 -229,569 -479,1094 -892,1870 -143,269 -339,627 -385,705 -23,39 -61,104 -84,145 -39,70 -131,223 -262,435 -181,294 -460,741 -542,870 -53,83 -113,177 -134,210 -37,59 -137,213 -521,795 -107,162 -223,338 -257,390 -358,544 -435,657 -727,1064 -115,160 -342,478 -505,706 -327,458 -540,751 -618,850 -28,36 -87,112 -131,170 -309,405 -470,605 -724,905 -98,116 -243,290 -323,387 -191,235 -540,629 -669,755 -57,56 -123,122 -147,148 l -44,48 18,29 c 19,33 14,58 -12,58 -12,0 -34,-30 -68,-91 z"
           id="path2537"
           inkscape:connector-curvature="0" />
        <path
           d="m 11276,17549 c -14,-11 -60,-62 -103,-112 -43,-51 -80,-94 -83,-97 -13,-10 -208,-258 -285,-360 -43,-58 -88,-117 -99,-131 -12,-14 -30,-38 -41,-53 -11,-16 -69,-93 -130,-173 -60,-80 -117,-155 -125,-166 -8,-12 -37,-52 -65,-88 -27,-37 -57,-76 -65,-89 -14,-20 -67,-93 -230,-315 -37,-49 -91,-125 -121,-168 -30,-43 -77,-110 -105,-150 -84,-120 -271,-389 -304,-437 -17,-25 -67,-98 -113,-162 -45,-65 -94,-137 -110,-160 -15,-24 -44,-66 -65,-95 -80,-110 -149,-210 -407,-588 -149,-217 -220,-322 -353,-520 -70,-104 -155,-230 -188,-280 -68,-100 -253,-380 -269,-407 -5,-10 -36,-57 -68,-105 -82,-122 -253,-388 -327,-508 -34,-55 -77,-122 -94,-150 -48,-73 -171,-271 -266,-425 -46,-74 -95,-153 -110,-175 -15,-22 -29,-47 -33,-55 -3,-8 -35,-60 -71,-115 -36,-55 -77,-120 -92,-145 -15,-25 -77,-128 -139,-230 -62,-102 -192,-320 -290,-485 -98,-165 -184,-310 -191,-322 -27,-43 -245,-421 -291,-503 -14,-25 -29,-49 -33,-55 -4,-5 -18,-28 -30,-50 -13,-22 -52,-92 -88,-155 -35,-63 -78,-140 -95,-170 -16,-30 -76,-136 -132,-235 -56,-99 -160,-281 -230,-405 -70,-124 -146,-256 -170,-295 -23,-38 -61,-104 -85,-145 -51,-88 -205,-340 -271,-443 -25,-40 -62,-88 -83,-107 -38,-36 -45,-72 -16,-78 25,-4 102,79 154,169 27,46 77,129 111,184 34,55 77,127 96,160 18,33 37,62 41,63 4,2 8,7 8,12 0,4 32,63 72,131 85,147 210,366 245,429 295,533 625,1115 773,1365 59,99 122,207 140,240 18,33 39,67 45,75 7,8 24,35 37,60 70,125 221,380 272,460 13,19 62,100 110,180 133,223 224,369 351,570 28,44 84,134 125,200 41,67 112,180 157,251 46,72 99,158 118,192 20,34 49,82 65,107 16,25 39,62 52,82 82,133 239,372 454,693 323,483 352,527 406,610 25,39 53,77 62,84 9,7 16,19 17,25 0,6 20,38 44,71 24,33 97,138 162,234 65,96 139,203 166,238 26,35 47,67 47,72 0,4 8,16 18,27 9,10 91,125 182,254 90,129 167,237 170,240 4,3 9,10 11,15 4,9 57,86 207,299 24,33 54,77 67,96 14,19 47,67 74,105 28,39 55,77 61,85 54,79 159,227 195,275 25,33 48,67 52,75 5,8 25,38 46,65 22,28 79,104 129,170 226,302 262,350 267,355 3,3 29,36 56,73 131,178 404,518 526,654 113,127 139,167 114,177 -8,3 -25,-4 -39,-15 z"
           id="path2539"
           inkscape:connector-curvature="0" />
        <path
           d="m 20380,14349 c -149,-16 -255,-82 -328,-203 -35,-59 -36,-64 -36,-156 0,-85 3,-102 31,-161 35,-75 78,-129 103,-129 14,0 8,18 -31,96 -56,111 -66,162 -48,236 47,198 224,291 495,259 297,-34 574,-201 574,-345 0,-27 -7,-47 -21,-62 -23,-24 -20,-54 5,-54 25,0 54,49 61,103 10,75 -13,123 -91,196 -171,160 -460,249 -714,220 z"
           id="path2551"
           inkscape:connector-curvature="0" />
        <path
           d="m 7141,14197 c -8,-10 -4,-24 17,-55 40,-60 145,-187 223,-269 37,-40 75,-85 83,-101 39,-76 58,-229 36,-287 -9,-23 -14,-26 -38,-21 -65,16 -98,96 -88,217 3,41 4,78 1,81 -11,10 -43,-3 -50,-20 -4,-10 -9,-51 -12,-92 -5,-72 -4,-79 31,-148 52,-104 107,-134 166,-92 47,33 67,185 36,273 -17,46 -13,46 84,5 85,-36 209,-50 250,-28 34,18 11,33 -68,41 -131,14 -276,93 -358,195 -22,27 -77,89 -124,139 -47,51 -100,111 -118,133 -35,44 -52,51 -71,29 z"
           id="path2553"
           inkscape:connector-curvature="0" />
        <path
           d="m 7207,13548 c -69,-149 -28,-367 70,-368 53,0 143,140 105,164 -12,7 -28,-6 -45,-40 -24,-47 -40,-57 -71,-43 -32,15 -33,31 -3,70 18,26 22,45 24,119 2,115 -2,130 -37,130 -21,0 -31,-7 -43,-32 z"
           id="path2555"
           inkscape:connector-curvature="0" />
        <path
           d="m 20455,13521 c -41,-11 -87,-35 -106,-57 -80,-91 -56,-220 51,-274 91,-46 179,-34 247,35 39,38 43,47 43,90 0,32 6,55 20,73 l 21,25 -33,35 c -57,60 -167,93 -243,73 z m 147,-78 c 39,-16 41,-18 19,-23 -36,-8 -37,-27 -2,-59 49,-46 36,-93 -36,-130 -62,-32 -177,2 -213,62 -24,38 -25,59 -5,96 34,67 143,92 237,54 z"
           id="path2557"
           inkscape:connector-curvature="0" />
        <path
           d="m 7014,13305 c -34,-23 -47,-68 -42,-145 2,-38 0,-70 -4,-70 -5,0 -31,16 -59,35 -49,33 -91,43 -115,27 -37,-24 -64,-142 -50,-217 8,-42 78,-121 166,-188 30,-23 92,-74 139,-114 91,-78 121,-93 121,-61 0,20 -104,131 -173,184 l -39,29 20,50 c 12,32 17,64 14,89 l -5,39 34,-8 c 19,-4 43,-9 54,-11 41,-9 139,85 160,154 11,36 -13,26 -64,-28 -29,-31 -56,-50 -69,-50 -27,0 -27,4 -1,39 26,35 36,133 20,183 -20,60 -70,90 -107,63 z m 58,-79 c 26,-40 15,-126 -15,-126 -26,0 -37,25 -37,88 0,61 1,63 23,56 12,-4 25,-12 29,-18 z m -192,-155 c 61,-44 83,-114 64,-210 -9,-42 -29,-40 -85,12 -59,53 -69,74 -69,137 0,90 25,107 90,61 z"
           id="path2559"
           inkscape:connector-curvature="0" />
        <path
           d="m 6055,13148 c -87,-49 -126,-169 -126,-383 -1,-182 25,-273 91,-329 39,-32 74,-33 142,-2 43,19 158,107 178,136 3,4 36,31 73,59 130,98 226,132 265,93 44,-44 53,-154 26,-307 -18,-100 -48,-167 -98,-223 -39,-43 -50,-85 -24,-90 18,-4 83,76 115,143 48,98 74,251 67,388 -13,242 -184,225 -488,-47 -109,-98 -182,-127 -232,-91 -12,8 -32,38 -45,67 -19,44 -24,74 -27,182 -6,193 21,298 89,347 27,19 35,20 67,11 20,-6 38,-10 40,-8 5,6 -19,50 -32,58 -16,11 -58,9 -81,-4 z"
           id="path2561"
           inkscape:connector-curvature="0" />
        <path
           d="m 20648,13120 c -36,-28 -37,-71 -3,-125 13,-22 25,-44 25,-48 0,-13 -60,2 -98,24 -45,26 -72,25 -65,-1 15,-58 173,-116 211,-78 24,24 6,92 -35,140 -9,10 -13,25 -9,34 9,23 86,13 168,-21 76,-32 101,-36 106,-13 8,40 -106,96 -213,105 -51,4 -64,2 -87,-17 z"
           id="path2563"
           inkscape:connector-curvature="0" />
        <path
           d="m 21448,12983 c -8,-20 -229,-113 -266,-113 -10,0 -26,14 -37,30 -24,36 -65,42 -65,10 0,-12 7,-32 16,-46 20,-29 24,-23 -53,-73 -33,-21 -73,-56 -89,-77 -25,-33 -29,-46 -29,-105 0,-60 3,-71 31,-106 44,-54 119,-103 160,-103 50,0 43,25 -14,54 -55,28 -118,93 -128,131 -9,35 1,68 32,105 31,37 107,90 128,90 8,0 34,-21 58,-47 84,-92 106,-113 122,-113 37,0 1,73 -77,157 -28,30 -30,53 -4,53 19,0 216,77 243,95 27,18 32,50 8,59 -21,8 -32,8 -36,-1 z"
           id="path2565"
           inkscape:connector-curvature="0" />
        <path
           d="m 21510,3875 c -6,-8 -9,-18 -6,-23 2,-4 53,-37 113,-72 216,-128 383,-242 383,-260 0,-20 -128,-45 -325,-65 -88,-8 -191,-22 -230,-31 -38,-9 -91,-15 -117,-14 -36,1 -48,-3 -48,-13 0,-32 72,-35 273,-12 385,44 440,55 477,103 28,35 25,63 -12,102 -57,59 -408,278 -469,293 -18,5 -31,2 -39,-8 z"
           id="path2585"
           inkscape:connector-curvature="0" />
        <path
           d="m 6184,3778 c -128,-133 -180,-195 -243,-291 -62,-97 -74,-143 -41,-169 13,-11 38,-18 62,-18 51,0 136,-22 252,-65 122,-45 141,-47 141,-15 0,20 -11,31 -60,57 -71,38 -192,80 -255,88 -75,10 -90,15 -90,28 2,38 184,269 299,380 51,48 89,92 86,97 -18,29 -55,6 -151,-92 z"
           id="path2587"
           inkscape:connector-curvature="0" />
        <path
           d="m 17285,3753 c -159,-4 -598,-29 -920,-53 -143,-11 -294,-22 -335,-25 -41,-3 -100,-8 -130,-10 -30,-3 -93,-7 -140,-10 -47,-3 -110,-8 -140,-10 -288,-26 -826,-30 -4390,-38 -1034,-3 -3159,22 -3744,43 -231,8 -354,7 -615,-5 -460,-21 -641,-45 -692,-91 -42,-38 -15,-64 39,-38 43,20 254,49 427,58 66,3 208,11 315,17 107,6 272,9 365,5 347,-12 637,-19 880,-20 138,-1 770,-9 1405,-17 1336,-16 2021,-16 2770,1 352,8 776,10 1240,6 948,-9 1648,5 2245,44 253,17 534,35 625,40 91,5 188,12 215,15 64,6 388,23 615,30 191,7 996,-9 1260,-25 340,-20 809,-32 1245,-32 423,1 838,-13 1168,-38 188,-15 589,-9 595,8 2,7 17,19 33,27 34,18 40,55 9,55 -10,0 -23,-8 -29,-17 -9,-17 -35,-18 -338,-17 -180,1 -372,6 -425,13 -59,7 -281,11 -570,11 -410,0 -1189,18 -1533,35 -678,33 -1106,44 -1450,38 z"
           id="path2589"
           inkscape:connector-curvature="0" />
        <path
           d="m 13164,3259 c -70,-27 -138,-92 -155,-147 -11,-36 -10,-48 4,-76 29,-62 74,-103 145,-131 138,-55 150,-115 34,-174 -64,-32 -104,-36 -158,-12 -26,12 -51,18 -55,14 -4,-5 -2,-24 4,-43 26,-76 118,-87 230,-28 78,42 117,94 117,157 0,74 -26,106 -127,152 -140,64 -171,125 -94,187 47,38 113,69 164,77 29,5 37,10 35,23 -5,25 -81,26 -144,1 z"
           id="path2591"
           inkscape:connector-curvature="0" />
        <path
           d="m 13570,3010 c -14,-27 -5,-40 29,-40 32,0 56,22 47,45 -8,23 -63,19 -76,-5 z"
           id="path2593"
           inkscape:connector-curvature="0" />
        <path
           d="m 14300,2941 c -72,-22 -113,-58 -151,-131 -48,-94 -19,-205 69,-261 44,-29 51,-30 122,-26 83,5 154,29 148,49 -3,9 -31,13 -94,14 -99,0 -135,13 -178,64 -26,31 -35,94 -20,134 6,17 44,23 44,7 0,-13 64,-41 94,-41 40,0 99,29 125,61 31,39 31,96 1,121 -24,19 -111,24 -160,9 z m 108,-57 c 31,-9 27,-31 -9,-50 -24,-12 -45,-14 -83,-10 -69,9 -86,20 -55,36 49,27 103,35 147,24 z"
           id="path2595"
           inkscape:connector-curvature="0" />
        <path
           d="m 13577,2924 c -4,-4 -7,-26 -7,-48 0,-41 -2,-51 -39,-186 -15,-57 -17,-76 -8,-82 7,-4 16,-7 20,-5 19,6 72,194 79,277 3,39 0,45 -17,48 -12,2 -24,0 -28,-4 z"
           id="path2597"
           inkscape:connector-curvature="0" />
        <path
           d="m 13935,2924 c -179,-36 -188,-39 -198,-62 -19,-42 2,-47 101,-22 65,16 94,20 108,12 16,-9 12,-14 -32,-43 -104,-71 -157,-141 -140,-184 9,-23 85,-55 133,-55 61,0 153,42 153,71 0,20 -4,21 -37,15 -106,-19 -132,-19 -159,-2 -25,17 -25,18 -7,38 10,11 42,38 71,60 90,67 123,104 119,133 -5,41 -41,53 -112,39 z"
           id="path2599"
           inkscape:connector-curvature="0" />
      </g>
    </g>
  </g>
</svg>
